<svg xmlns="http://www.w3.org/2000/svg" viewBox="0 0 32 30">
  <g fill="#4090ed">
    <path d="M28.36 3.51 13.22 18.53l-3.9-3.87c-.84-.82-2.19-.8-3.02.03-.81.82-.81 2.14 0 2.96l5.41 5.37c.83.83 2.18.83 3.02 0L31.37 6.51c.83-.83.83-2.17 0-2.99-.83-.83-2.18-.83-3.02 0" class="d"/>
    <path d="M27.98 11.87v12.92c0 1.64-1.34 2.97-2.99 2.97H5.24c-1.65 0-2.99-1.33-2.99-2.97V5.2c0-1.64 1.34-2.97 2.99-2.97h19.75c.71 0 1.39.25 1.93.71l.8-.79.8-.79A5.301 5.301 0 0 0 24.99 0H5.24C2.35 0 0 2.33 0 5.2v19.6C0 27.67 2.35 30 5.24 30h19.75c2.89 0 5.24-2.33 5.24-5.2V9.64l-1.13 1.12-1.12 1.12Z" class="d"/>
  </g>
</svg>