<?xml version="1.0" encoding="UTF-8"?>
<svg id="_レイヤー_1" data-name="レイヤー 1" xmlns="http://www.w3.org/2000/svg" viewBox="0 0 35.94 30.37">
  <defs>
    <style>
      .cls-1 {
        fill: #ff9d06;
        stroke-width: 0px;
      }
    </style>
  </defs>
  <path class="cls-1" d="M31.69,5.25v-1.27c.15-1.44-.8-2.76-2.21-3.06-2.61-.86-5.98-.92-11.51-.92S9.08.06,6.48.92c-1.41.3-2.37,1.62-2.22,3.06v1.27c-1.31,0-4.26.02-4.26,2.2,0,2.49.44,4.97,1.28,5.12h1.17c.28,0,.53-.1.53-.55v-4.94c0-.45.82-.43,1.28-.42v18.42c0,1.08.91,1.77,2.29,2.22v2.3c0,.75,1.27.78,2.6.78s2.6-.03,2.6-.78v-1.58c2.33.09,4.68,0,6.22,0s3.9.08,6.22,0v1.58c0,.75,1.23.78,2.6.78s2.6-.03,2.6-.78v-2.3c1.38-.44,2.29-1.14,2.29-2.22V6.65c.46-.01,1.28-.03,1.28.42v4.94c0,.45.25.55.53.55h1.17c.84-.15,1.28-2.64,1.28-5.12,0-2.17-2.94-2.2-4.26-2.19M12.47,1.58c0-.2.16-.36.36-.36h10.29c.2,0,.36.16.36.36h0v.9c0,.2-.16.36-.36.36h-10.29c-.2,0-.36-.16-.36-.36h0v-.9ZM12.09,24.25c0,.19-.16.33-.38.35-1.67.17-5.17-.02-5.16-1.39v-1.65c0-1.81,5.55.72,5.55,2.07v.62ZM29.4,23.21c0,1.37-3.5,1.56-5.16,1.39-.22-.02-.38-.16-.38-.35v-.62c0-1.35,5.55-3.88,5.55-2.07v1.65M29.4,16.95c0,2.08-7.31,2.73-11.43,2.73s-11.42-.65-11.42-2.73V5.74c0-1.76,5.47-1.65,11.43-1.65s11.42-.11,11.42,1.65v11.22Z"/>
</svg>