<svg xmlns="http://www.w3.org/2000/svg" xmlns:xlink="http://www.w3.org/1999/xlink" width="1600.001" height="85.273" viewBox="0 0 1600.001 85.273">
  <defs>
    <linearGradient id="linear-gradient" x1="1" y1="-0.858" x2="0" y2="-0.885" gradientUnits="objectBoundingBox">
      <stop offset="0" stop-color="#0f57ac"/>
      <stop offset="1" stop-color="#57a2fa"/>
    </linearGradient>
  </defs>
  <g id="グループ_3586" data-name="グループ 3586" transform="translate(6769 9331)">
    <path id="前面オブジェクトで型抜き_2" data-name="前面オブジェクトで型抜き 2" d="M365.232,286.54h-.054c-50.139,0-100.537-1.909-149.8-5.671-39.408-3.01-78.176-7.206-115.225-12.471-32.954-4.684-58.436-9.367-74.01-12.471C9.3,252.567.08,250.278,0,250.258v-26.7l.027.007c1.154.316,11.811,3.2,30.3,7.353,17.948,4.029,47.176,10.109,84.495,16.195,41.928,6.838,85.305,12.287,128.927,16.2,54.516,4.885,109.567,7.362,163.624,7.363h.178c9.838,0,19.844-.085,29.739-.251,58.757-.99,112.454-2.517,164.161-4.668,50.789-2.113,98.865-4.8,146.976-8.205-15.76,1.644-31.7,3.339-47.114,4.977l-.836.089-.031,0-.018,0h-.007c-52.647,5.6-107.086,11.383-159.473,15.766-28.2,2.359-53.648,4.143-77.793,5.453-27.069,1.469-51.88,2.312-75.851,2.578C379.934,286.5,372.508,286.54,365.232,286.54ZM1600,266.474h0c-.284-.108-7.1-2.7-20.313-6.522-12.347-3.573-32.9-8.962-60.71-14.35-31.268-6.059-65.169-10.887-100.761-14.351-44.491-4.328-91.749-6.523-140.463-6.523-22.379,0-45.438.467-68.535,1.388-94.973,4.062-203.8,10.215-291.112,16.46,14.547-1.522,29.77-3.172,45.245-4.905,54.659-5.318,100.785-10.134,137.1-14.315,48.495-5.583,144.5-14.95,242.616-14.95,26.871,0,52.386.716,75.835,2.129,25.838,1.556,49.78,4,71.162,7.25,23.277,3.543,44.1,8.141,61.9,13.668A242.95,242.95,0,0,1,1578,241.1a158.152,158.152,0,0,1,22,11.736v13.642Z" transform="translate(-6769 -9539.404)" fill="url(#linear-gradient)"/>
    <path id="前面オブジェクトで型抜き_3" data-name="前面オブジェクトで型抜き 3" d="M1600,115H0V71.258c.086.02,9.192,2.287,26.163,5.668,15.577,3.1,41.068,7.786,74.052,12.471,37.074,5.266,75.864,9.462,115.291,12.472,49.287,3.762,99.714,5.67,149.881,5.671,7.361,0,14.81-.041,22.141-.122,23.967-.265,48.792-1.108,75.894-2.578,24.168-1.31,49.629-3.094,77.838-5.453C593.7,95,648.189,89.213,700.88,83.615l.088-.009c32.527-3.456,66.162-7.029,99.295-10.274,108.975-10.673,284.265-20.858,409.644-26.218,23.1-.921,46.169-1.387,68.571-1.387,46.4,0,91.522,1.989,134.114,5.913,34.607,3.188,67.742,7.664,98.482,13.305,53.686,9.851,83.5,20.213,88.927,22.191V115h0Z" transform="translate(-6769 -9360.727)" fill="#fff"/>
  </g>
</svg>
