<svg id="グループ_3576" data-name="グループ 3576" xmlns="http://www.w3.org/2000/svg" xmlns:xlink="http://www.w3.org/1999/xlink" width="175.151" height="150.199" viewBox="0 0 175.151 150.199">
  <defs>
    <clipPath id="clip-path">
      <rect id="長方形_6909" data-name="長方形 6909" width="175.151" height="150.199" fill="#8bd7ff" stroke="#8bd7ff" stroke-width="1"/>
    </clipPath>
  </defs>
  <g id="グループ_3575" data-name="グループ 3575" clip-path="url(#clip-path)">
    <path id="パス_22622" data-name="パス 22622" d="M173.184,123.811l-35.45-15.682c2.293-1.728,5.039-3.56,8.34-5.665a2.183,2.183,0,0,0,0-3.683C131.622,89.57,127.78,85.55,126.241,72.8a2.184,2.184,0,0,0-4.336,0c-1.308,10.836-4.28,15.367-14.007,22.135L88.876,86.516a2.181,2.181,0,0,0-1.766,0L2.8,123.811a2.184,2.184,0,0,0-.068,3.963l84.308,40.814a2.186,2.186,0,0,0,1.9,0l84.307-40.814a2.183,2.183,0,0,0-.068-3.963M120.15,89.923a25.015,25.015,0,0,0,3.922-6.974,25.086,25.086,0,0,0,3.922,6.974c2.938,3.692,7.038,6.859,12.883,10.7a81.082,81.082,0,0,0-8.7,6.392l-.04.035a32.911,32.911,0,0,0-4.14,4.272,25.087,25.087,0,0,0-3.922,6.974,25.015,25.015,0,0,0-3.922-6.974c-2.936-3.692-7.036-6.859-12.882-10.7q1.056-.693,2.036-1.359c.035-.022.069-.045.1-.07,4.727-3.222,8.179-6.045,10.744-9.271M87.993,164.2,8.881,125.9l79.112-35,15.6,6.9c-.495.32-1,.645-1.524.978a2.184,2.184,0,0,0,0,3.683c14.453,9.211,18.294,13.23,19.834,25.985a2.184,2.184,0,0,0,4.336,0c.971-8.044,2.859-12.613,7.745-17.2L167.1,125.9Z" transform="translate(-0.417 -19.69)" fill="#8bd7ff" stroke="#8bd7ff" stroke-width="1"/>
    <path id="パス_22623" data-name="パス 22623" d="M173.184,123.811l-35.45-15.682c2.293-1.728,5.039-3.56,8.34-5.665a2.183,2.183,0,0,0,0-3.683C131.622,89.57,127.78,85.55,126.241,72.8a2.184,2.184,0,0,0-4.336,0c-1.308,10.836-4.28,15.367-14.007,22.135L88.876,86.516a2.181,2.181,0,0,0-1.766,0L2.8,123.811a2.184,2.184,0,0,0-.068,3.963l84.308,40.814a2.186,2.186,0,0,0,1.9,0l84.307-40.814a2.183,2.183,0,0,0-.068-3.963ZM120.15,89.923a25.015,25.015,0,0,0,3.922-6.974,25.086,25.086,0,0,0,3.922,6.974c2.938,3.692,7.038,6.859,12.883,10.7a81.082,81.082,0,0,0-8.7,6.392l-.04.035a32.911,32.911,0,0,0-4.14,4.272,25.087,25.087,0,0,0-3.922,6.974,25.015,25.015,0,0,0-3.922-6.974c-2.936-3.692-7.036-6.859-12.882-10.7q1.056-.693,2.036-1.359c.035-.022.069-.045.1-.07C114.133,95.971,117.585,93.148,120.15,89.923ZM87.993,164.2,8.881,125.9l79.112-35,15.6,6.9c-.495.32-1,.645-1.524.978a2.184,2.184,0,0,0,0,3.683c14.453,9.211,18.294,13.23,19.834,25.985a2.184,2.184,0,0,0,4.336,0c.971-8.044,2.859-12.613,7.745-17.2L167.1,125.9Z" transform="translate(-0.417 -19.69)" fill="#8bd7ff" stroke="#8bd7ff" stroke-miterlimit="10" stroke-width="3"/>
    <path id="パス_22624" data-name="パス 22624" d="M61.571,33.09C76.024,42.3,79.866,46.321,81.4,59.074a2.184,2.184,0,0,0,4.337,0C87.28,46.321,91.122,42.3,105.574,33.09a2.184,2.184,0,0,0,0-3.683C91.122,20.2,87.28,16.176,85.741,3.422a2.184,2.184,0,0,0-4.337,0C79.866,16.176,76.024,20.2,61.571,29.406a2.183,2.183,0,0,0,0,3.683M79.65,20.548a25.04,25.04,0,0,0,3.922-6.974A25.024,25.024,0,0,0,87.5,20.548c2.936,3.693,7.036,6.859,12.882,10.7-5.845,3.841-9.945,7.007-12.882,10.7a25.024,25.024,0,0,0-3.923,6.974,25.04,25.04,0,0,0-3.922-6.974c-2.937-3.693-7.037-6.859-12.882-10.7,5.845-3.841,9.944-7.007,12.882-10.7" transform="translate(-16.825 -0.417)" fill="#8bd7ff" stroke="#8bd7ff" stroke-width="1"/>
    <path id="パス_22625" data-name="パス 22625" d="M61.571,33.09C76.024,42.3,79.866,46.321,81.4,59.074a2.184,2.184,0,0,0,4.337,0C87.28,46.321,91.122,42.3,105.574,33.09a2.184,2.184,0,0,0,0-3.683C91.122,20.2,87.28,16.176,85.741,3.422a2.184,2.184,0,0,0-4.337,0C79.866,16.176,76.024,20.2,61.571,29.406a2.183,2.183,0,0,0,0,3.683ZM79.65,20.548a25.04,25.04,0,0,0,3.922-6.974A25.024,25.024,0,0,0,87.5,20.548c2.936,3.693,7.036,6.859,12.882,10.7-5.845,3.841-9.945,7.007-12.882,10.7a25.024,25.024,0,0,0-3.923,6.974,25.04,25.04,0,0,0-3.922-6.974c-2.937-3.693-7.037-6.859-12.882-10.7C72.613,27.407,76.713,24.241,79.65,20.548Z" transform="translate(-16.825 -0.417)" fill="#8bd7ff" stroke="#8bd7ff" stroke-miterlimit="10" stroke-width="3"/>
    <path id="パス_22626" data-name="パス 22626" d="M156.18,37.86a10.212,10.212,0,1,0-10.212-10.212A10.224,10.224,0,0,0,156.18,37.86m0-16.057a5.844,5.844,0,1,1-5.845,5.845A5.851,5.851,0,0,1,156.18,21.8" transform="translate(-40.553 -4.844)" fill="#8bd7ff" stroke="#8bd7ff" stroke-width="1"/>
    <path id="パス_22627" data-name="パス 22627" d="M156.18,37.86a10.212,10.212,0,1,0-10.212-10.212A10.224,10.224,0,0,0,156.18,37.86Zm0-16.057a5.844,5.844,0,1,1-5.845,5.845A5.851,5.851,0,0,1,156.18,21.8Z" transform="translate(-40.553 -4.844)" fill="#8bd7ff" stroke="#8bd7ff" stroke-miterlimit="10" stroke-width="3"/>
    <path id="パス_22628" data-name="パス 22628" d="M88.5,124.978A10.212,10.212,0,1,0,98.709,135.19,10.224,10.224,0,0,0,88.5,124.978m0,16.057a5.845,5.845,0,1,1,5.845-5.845,5.851,5.851,0,0,1-5.845,5.845" transform="translate(-21.749 -34.722)" fill="#8bd7ff" stroke="#8bd7ff" stroke-width="1"/>
    <path id="パス_22629" data-name="パス 22629" d="M88.5,124.978A10.212,10.212,0,1,0,98.709,135.19,10.224,10.224,0,0,0,88.5,124.978Zm0,16.057a5.845,5.845,0,1,1,5.845-5.845A5.851,5.851,0,0,1,88.5,141.035Z" transform="translate(-21.749 -34.722)" fill="#8bd7ff" stroke="#8bd7ff" stroke-miterlimit="10" stroke-width="3"/>
    <path id="パス_22630" data-name="パス 22630" d="M32.058,89.891A14.676,14.676,0,1,0,17.382,75.214,14.693,14.693,0,0,0,32.058,89.891m0-24.985A10.309,10.309,0,1,1,21.75,75.214,10.32,10.32,0,0,1,32.058,64.906" transform="translate(-4.829 -16.819)" fill="#8bd7ff" stroke="#8bd7ff" stroke-width="1"/>
    <path id="パス_22631" data-name="パス 22631" d="M32.058,89.891A14.676,14.676,0,1,0,17.382,75.214,14.693,14.693,0,0,0,32.058,89.891Zm0-24.985A10.309,10.309,0,1,1,21.75,75.214,10.32,10.32,0,0,1,32.058,64.906Z" transform="translate(-4.829 -16.819)" fill="#8bd7ff" stroke="#8bd7ff" stroke-miterlimit="10" stroke-width="3"/>
  </g>
</svg>
