<svg id="グループ_3307" data-name="グループ 3307" xmlns="http://www.w3.org/2000/svg" xmlns:xlink="http://www.w3.org/1999/xlink" width="109.931" height="142.547" viewBox="0 0 109.931 142.547">
  <defs>
    <clipPath id="clip-path">
      <rect id="長方形_6092" data-name="長方形 6092" width="109.931" height="142.547" fill="#8bd7ff" stroke="#8bd7ff" stroke-width="2"/>
    </clipPath>
  </defs>
  <g id="グループ_3306" data-name="グループ 3306" clip-path="url(#clip-path)">
    <path id="パス_20470" data-name="パス 20470" d="M47.294.118,56,11.56C57.959,9.9,59.657,8.4,61.414,6.971c9.508-7.717,20.174-8.893,31.1-4.193,11.147,4.8,16.988,14.1,17.4,26.077.422,12.183-6.3,23.269-18.738,28.322-2.115.859-4.336,1.457-6.976,2.331.615,1.906,1.075,3.539,1.664,5.123,2.054,5.526,4.54,10.923,6.17,16.57,7.572,26.239-8.488,53.908-35.05,60.043-15.627,3.609-29.793-.292-41.188-11.5C1.713,115.9-3.665,99.136,2.57,79.8A171.918,171.918,0,0,1,11.6,57.761C20.569,39.242,31.546,21.881,43.122,4.9A59.938,59.938,0,0,1,47.294.118m-.58,8.327c-1.033,1.266-1.747,2-2.3,2.845A478.159,478.159,0,0,0,17.557,56.138,163.851,163.851,0,0,0,6.688,81.55a41.583,41.583,0,0,0-1.024,21.24c3.948,19.6,21.254,34.757,40.461,35.043,27.862.414,46.951-26.1,42.648-50.722-1.722-9.856-5.865-19-10.65-27.41-23.21-6.235-30.217-18.353-25.138-43.278-1.223-1.88-2.574-4.047-4.032-6.138a12.968,12.968,0,0,0-2.239-1.84m58.419,20.89A24.547,24.547,0,0,0,80.016,4.829,25.056,25.056,0,0,0,55.289,29.971,25.364,25.364,0,0,0,80.643,54.614c13.247-.212,24.97-11.259,24.489-25.279" transform="translate(0 0)" fill="#8bd7ff" stroke="#8bd7ff" stroke-width="2"/>
    <path id="パス_20471" data-name="パス 20471" d="M36.312,161.859c-.328,11.868,3.475,21.633,14.421,27.639.674.37,1.543.642,1.925,1.221.5.757,1.041,1.97.75,2.626a2.86,2.86,0,0,1-2.443,1.1,10.4,10.4,0,0,1-3.5-1.447c-11.4-6.38-18.415-22.138-15.6-35.029a4.46,4.46,0,0,1,.879-2.079,2.531,2.531,0,0,1,1.938-.769,2.258,2.258,0,0,1,1.564,1.393,47.847,47.847,0,0,1,.074,5.347" transform="translate(-14.291 -70.961)" fill="#8bd7ff" stroke="#8bd7ff" stroke-width="2"/>
    <path id="パス_20472" data-name="パス 20472" d="M127.819,58.389a54.376,54.376,0,0,1-10.745-9.069,2.946,2.946,0,0,1-.17-2.738c.782-1.379,2.17-1.088,3.269-.238,2.4,1.859,4.739,3.806,7.424,5.976a45.869,45.869,0,0,0,4-3.472c3.787-4.14,7.461-8.385,11.21-12.56a15.129,15.129,0,0,1,2.779-2.588,2.25,2.25,0,0,1,2.069.025,2.619,2.619,0,0,1,.793,1.972,3.48,3.48,0,0,1-.85,2.052q-8.918,9.979-17.94,19.864c-.305.335-.911.4-1.837.776" transform="translate(-53.369 -15.309)" fill="#8bd7ff" stroke="#8bd7ff" stroke-width="2"/>
  </g>
</svg>
