<svg id="グループ_3301" data-name="グループ 3301" xmlns="http://www.w3.org/2000/svg" xmlns:xlink="http://www.w3.org/1999/xlink" width="147.131" height="147.131" viewBox="0 0 147.131 147.131">
  <defs>
    <clipPath id="clip-path">
      <rect id="長方形_6089" data-name="長方形 6089" width="147.131" height="147.131" fill="#8bd7ff"/>
    </clipPath>
  </defs>
  <g id="グループ_3300" data-name="グループ 3300" clip-path="url(#clip-path)">
    <path id="パス_20459" data-name="パス 20459" d="M239.458,241.192a4.12,4.12,0,0,1-2.922-1.211,49.1,49.1,0,0,0-69.38,0,4.132,4.132,0,0,1-5.844-5.844,57.38,57.38,0,0,1,81.069,0,4.133,4.133,0,0,1-2.922,7.055" transform="translate(-128.279 -174.166)" fill="#8bd7ff"/>
    <path id="パス_20460" data-name="パス 20460" d="M274.92,319.5A4.12,4.12,0,0,1,272,318.289a32.307,32.307,0,0,0-23-9.513h-.008A32.287,32.287,0,0,0,226,318.285a4.133,4.133,0,0,1-5.844-5.844,40.5,40.5,0,0,1,28.834-11.931H249a40.537,40.537,0,0,1,28.842,11.934,4.133,4.133,0,0,1-2.922,7.055" transform="translate(-175.43 -240.781)" fill="#8bd7ff"/>
    <path id="パス_20461" data-name="パス 20461" d="M310.318,397.782a4.12,4.12,0,0,1-2.922-1.211,16.036,16.036,0,0,0-22.626,0,4.133,4.133,0,1,1-5.844-5.844,24.285,24.285,0,0,1,34.315,0,4.133,4.133,0,0,1-2.922,7.055" transform="translate(-222.516 -307.379)" fill="#8bd7ff"/>
    <path id="パス_20462" data-name="パス 20462" d="M350.42,464.927a5.931,5.931,0,1,1-8.387,0,5.931,5.931,0,0,1,8.387,0" transform="translate(-272.659 -371.127)" fill="#8bd7ff"/>
    <path id="パス_20463" data-name="パス 20463" d="M73.567,147.131a73.565,73.565,0,1,1,73.564-73.567,73.651,73.651,0,0,1-73.564,73.567m0-139.811a66.246,66.246,0,1,0,66.244,66.244A66.321,66.321,0,0,0,73.567,7.319" transform="translate(0)" fill="#8bd7ff"/>
  </g>
</svg>
