<svg xmlns="http://www.w3.org/2000/svg" xmlns:xlink="http://www.w3.org/1999/xlink" width="120.571" height="109.82" viewBox="0 0 120.571 109.82">
  <defs>
    <clipPath id="clip-path">
      <rect id="長方形_6763" data-name="長方形 6763" width="120.571" height="109.82" fill="#ceeeff"/>
    </clipPath>
  </defs>
  <g id="グループ_3442" data-name="グループ 3442" transform="translate(0 0)">
    <g id="グループ_3441" data-name="グループ 3441" transform="translate(0 0)" clip-path="url(#clip-path)">
      <path id="パス_22608" data-name="パス 22608" d="M39.42.33c-.288-.3-.894-.285-1.051-.33-.8,3.074-1.145,6.117-2.351,8.771-4,8.789-8.3,17.439-12.487,26.14C20.7,40.791,17.523,46.533,15.1,52.578,12.525,59.021,9.918,65.39,6.23,71.3c-2,3.208-3.8,6.554-5.537,9.913C-.456,83.428-.263,84.3,1.928,85.29c3.909,1.759,7.938,3.256,11.947,4.784,2.067.787,4.251,1.276,6.288,2.125,3.13,1.3,6.21,2.735,9.252,4.234,3.517,1.734,6.333,1.459,9.752-2.258,3.449-3.75,6.987-7.425,10.305-11.288,2.545-2.963,4.774-6.2,7.209-9.257,2.862-3.6,5.794-7.141,8.7-10.709a134.517,134.517,0,0,1-2.823,14.338c-1.136,4.689-2.51,9.326-3.506,14.042-.979,4.628-2.582,9.153-3.111,14.367,4.119.333,7.755,1.026,11.347.837,8.333-.438,16.258,1.965,24.37,3.016,3.948.511,4.087.807,5.463-2.984,1.911-5.27,3.7-10.589,5.336-15.951,2.13-6.988,4.187-14,6.026-21.073,1.278-4.922,1.929-10.007,3.227-14.922,2-7.572,4.4-15.037,6.46-22.593,1.051-3.86,2.756-7.625,2.339-12.389-2.078-.135-3.874-.255-5.67-.367a133.657,133.657,0,0,1-18.279-1.909c-6.138-1.24-12.367-2.061-18.577-2.9-2.242-.3-4.24-.671-5.986-2.361C70.371,10.5,68.4,9.451,66,11.07a3.467,3.467,0,0,1-2.553.018c-3.486-1.064-6.925-2.283-10.4-3.4C48.049,6.082,43.2,4.22,39.42.33M84.465,23.487a8.393,8.393,0,0,1-7.73-4.074c5.331-1.319,7.275-.293,7.73,4.074M73.333,16.664c-3.873,2.744-5.026,2.443-6.58-1.524,2.307-.361,4.211.533,6.58,1.524M64.958,15.9c1.545,4.107,1.713,4.174,6.6,4.713-1.157,4.64-5.8,6.311-8.645,10.134,3.429.091,4.667-2.336,6.358-3.762a56.163,56.163,0,0,0,5.159-5.672c.166,5.073.061,10.313,5.08,13.607-1.171-3.84-4.117-7.264-2.675-11.982,1.62.774,3.235,1.479,4.788,2.3,3.382,1.787,5.093-.784,4.647-3.649a22.319,22.319,0,0,0-1.116-3.429L118.641,22.1a28,28,0,0,1-.613,3.771c-1.36,4.632-3.011,9.187-4.215,13.858-2.933,11.364-5.4,22.854-8.582,34.144-2.867,10.167-6.43,20.138-9.723,30.183a33.436,33.436,0,0,1-1.565,3.4c-3.14-.409-6.341-.405-9.267-1.3-5.363-1.637-10.8-1.643-16.283-1.8-3.208-.09-6.518.342-9.938-1.265,1.24-5.534,2.43-10.992,3.694-16.431,1.239-5.336,2.671-10.629,3.8-15.986s3.789-10.44,3.111-16.944c-2.71,3.793-4.784,7.033-7.193,10-6.325,7.787-11.695,16.36-19.2,23.187a63.033,63.033,0,0,0-5.116,5.93,5.467,5.467,0,0,1-7.032,1.573c-2.024-.912-4.153-1.631-6.084-2.707-4.856-2.707-10.181-3.942-15.462-5.41-2.2-.613-4.207-1.929-6.344-2.945.462-3.68,2.418-6.389,4.187-9.013,3.836-5.689,6.382-11.975,9.2-18.151,3.843-8.428,7.685-16.855,11.592-25.252,3.63-7.808,7.355-15.572,11.005-23.371a36.109,36.109,0,0,0,1.194-3.429c7.2,4.326,15.006,6.484,22.623,9.116a3.816,3.816,0,0,1,2.526,2.64" transform="translate(0 0.001)" fill="#ceeeff"/>
      <path id="パス_22609" data-name="パス 22609" d="M72.165,96.985C74,89.661,75.866,82.343,77.611,75c.568-2.4.6-4.928,1.239-7.3,1.87-6.908,4.269-13.687,5.821-20.66C86.7,37.893,88.129,28.612,89.8,19.387a6.788,6.788,0,0,0-.055-1.467c-.363-.054-.726-.108-1.089-.16C85.109,31,83.815,44.738,79.468,57.847,75.1,71.033,74.354,85.22,69.284,98.282c2.108,1.354,2.546.041,2.881-1.3" transform="translate(22.207 5.693)" fill="#ceeeff"/>
      <path id="パス_22610" data-name="パス 22610" d="M27.086,36.5c-1.956,4.412-3.465,9.036-5.621,13.34-4.907,9.79-10.1,19.438-15.152,29.155-.427.82-.7,1.719-1.043,2.583l1.237.689a29.369,29.369,0,0,0,2.042-2.973c2.732-5.195,5.536-10.358,8.059-15.654,3.931-8.247,7.684-16.577,11.457-24.9,2.366-5.216,4.549-10.518,6.962-15.712,2.2-4.734,4.621-9.364,6.88-14.07a5.786,5.786,0,0,0,.181-1.957l-.761-.272c-.54.948-1.134,1.871-1.612,2.85C38,13.1,36.29,16.626,34.629,20.17,32.086,25.6,29.516,31.02,27.086,36.5" transform="translate(1.689 2.159)" fill="#ceeeff"/>
    </g>
  </g>
</svg>
