<svg id="グループ_3444" data-name="グループ 3444" xmlns="http://www.w3.org/2000/svg" xmlns:xlink="http://www.w3.org/1999/xlink" width="76.055" height="77.866" viewBox="0 0 76.055 77.866">
  <defs>
    <clipPath id="clip-path">
      <rect id="長方形_6764" data-name="長方形 6764" width="76.055" height="77.866" fill="#ceeeff"/>
    </clipPath>
  </defs>
  <g id="グループ_3443" data-name="グループ 3443" transform="translate(0 0)" clip-path="url(#clip-path)">
    <path id="パス_22611" data-name="パス 22611" d="M44.064,0H42.859C39.023,2.36,37.5,7.354,35.01,10.865a49.866,49.866,0,0,1-9.054,9.656C16.622,20.968,7.2,18.4,0,18.711,2.114,26,11.7,30.645,15.089,38.63c-1.117,10.957-4.94,19.205-4.829,31.388,8.582-3.893,12.463-12.487,19.316-18.109,5.349,7.126,3.511,21.438,11.47,25.956,4.548-6.72,4.15-18.383,7.243-26.559,7.87-4.8,20.042-5.307,27.763-10.26-7.722-5.961-18.4-8.96-27.163-13.885C47.123,18.268,46.061,8.663,44.064,0m0,27.765C52.139,32.971,62.69,35.7,70.622,41.046c-8.537,2.122-15.959,5.368-24.75,7.242-2.034,8.228-2.914,17.609-6.036,24.748C35.607,65.6,36,53.534,30.781,47.081c-4.09,1.109-5.68,6.312-8.449,9.658-2.328,2.811-7.372,7.319-9.054,6.64.624-9.236,3.909-15.81,5.431-24.145-3.4-6.86-9.538-10.984-13.278-17.5,7.435.413,14.262,1.432,21.732,1.809,6.407-4.254,9.507-11.817,15.091-16.9,1.143,6.226,4.4,14.983,1.811,21.125" transform="translate(0.002 0)" fill="#ceeeff" fill-rule="evenodd"/>
  </g>
</svg>
