<svg xmlns="http://www.w3.org/2000/svg" xmlns:xlink="http://www.w3.org/1999/xlink" width="116.109" height="65.429" viewBox="0 0 116.109 65.429">
  <defs>
    <clipPath id="clip-path">
      <rect id="長方形_6762" data-name="長方形 6762" width="116.109" height="65.429" fill="#ceeeff"/>
    </clipPath>
  </defs>
  <g id="グループ_3440" data-name="グループ 3440" transform="translate(0 0)">
    <g id="グループ_3439" data-name="グループ 3439" transform="translate(0 0)" clip-path="url(#clip-path)">
      <path id="パス_22607" data-name="パス 22607" d="M12.813,46.851c2.837.848,5.918.943,8.69,1.936a15.319,15.319,0,0,0,15-2.015c3.7,1.345,7.184,2.752,10.76,3.844a10.343,10.343,0,0,1,4.58,2.844,56.619,56.619,0,0,0,9.626,8.045c2.432,1.542,5.551,2.063,8.417,2.847,5.849,1.6,11.811,1.075,17.739.59A4.918,4.918,0,0,0,90.6,63.669c1.515-1.616,3.369-1.237,5.192-1.51,5.091-.766,10.227-.4,14.427-5.08,5.827-6.5,7.644-12.084,4.034-19.876-3.218-6.95-6.808-13.729-9.985-20.7a13.32,13.32,0,0,0-8.614-7.4A117.437,117.437,0,0,0,82.073,5.452a59.2,59.2,0,0,0-19.6-.7c-3.644.529-7.486.01-11.2-.384C46.144,3.828,41.04,3.007,35.941,2.21c-3.382-.529-6.723-1.319-10.11-1.8-1.8-.259-3.949-.739-5.454-.053C12.376,4,6,9.122,4.908,18.774A16.483,16.483,0,0,1,2.3,25.134C-.066,29-.741,32.813.911,37.17c2.129,5.62,6.654,8.111,11.9,9.681m26.332-2.434c-.495-.373-.464-1.443-.823-2.707l12.121,4.429c-3.2,1.513-8.179.623-11.3-1.722M34.614,26.445c5.263,1.925,5.947,3.287,4.212,8.457l-4.212-8.457m19.216,25.41c-2.9-3.388-1.459-7.578,2.736-10.891a12.671,12.671,0,0,1,8.188-2.593c7.533.686,13.749,4.747,19.379,9.573a3.659,3.659,0,0,1,.861,3.329c-1.035,2.191-2.188,4.805-4.082,6-2.94,1.854-6.534,2.668-8.67,3.476-8.368-.6-13.961-3.692-18.412-8.9M90.745,58.6c-.713,2.7-1.778,3.629-5.057,3.881a35.385,35.385,0,0,1-7.077-.27c4.511-2.283,8.052-5.282,9.138-10.83,3.319,2.358,3.883,3.859,3,7.218m12.267.19a43.126,43.126,0,0,1-7.89.892c-.651.032-1.345-.818-2.845-1.806L104.714,53.5c1.888,3.388,1.653,4.487-1.7,5.287M99.52,52.991c-1.637.5-3.335.806-4.775,1.147-2.477-2.609-4.927-4.967-7.125-7.543-5.735-6.722-13.6-9.284-21.752-11.135a11.623,11.623,0,0,0-11.9,4c-2.458,3.054-4.985,2.782-7.866,1.949a39.736,39.736,0,0,1-5.459-2.461c.4-3.158.816-6.041,1.1-8.935a4.8,4.8,0,0,0-2.241-4.86c-4.789-2.925-9.387-6.209-14.926-7.731-3.578-.983-7.046-1.367-10.534.32a17.017,17.017,0,0,1-3.468.692c3.068-5.208,6.9-8.116,11.075-10.627,2.437-1.465,5.04-.741,7.21.408,6.016,3.186,12.293,4.106,19.036,3.714,4.177-.244,8.409.609,12.624.824,3.734.191,7.48.1,11.215.276,7.472.345,15.119.027,21.627,4.72a21.442,21.442,0,0,1,4.171,3.7c4.513,5.562,7.255,12.075,9.164,18.877,1.737,6.192-1.055,10.8-7.173,12.666M43.861,6.053a82.231,82.231,0,0,0,24.263.969C77.826,6.013,87,9.279,96.1,12.086a12.232,12.232,0,0,1,7.329,6.929c3.04,6.682,6.134,13.337,9.051,20.072,2.768,6.392,1.629,11.165-3.55,15.543-1.366-1.449-2.214-2.9-1.057-4.935,2.212-3.886,1.666-8.008.148-11.8a115.855,115.855,0,0,0-7.437-15.639A20.925,20.925,0,0,0,83.5,11.432a135.863,135.863,0,0,0-15.368-.884c-6.216.174-12.462-.776-18.7-1.226A10.905,10.905,0,0,0,47.1,9.289c-7.2,1.043-13.5-1.554-19.661-4.759-.135-.071-.133-.408-.162-.686,5.551.691,11.12,1.162,16.579,2.209M8.906,13.467c2.468-5.234,7-8.195,12-10.581,2.2-1.049,4.14-.042,6.074.866-9.228,1.613-15.1,7.557-20.147,15.106.683-1.8,1.251-3.655,2.071-5.391m3.971,8.78c6.7-.157,13.116,1.454,18.353,5.949a15.332,15.332,0,0,1,4.2,5.53c3.015,7.409.283,13.246-11.109,13.064-3.07-.8-8.569-2-13.893-3.734a10.376,10.376,0,0,1-7.125-7.53C1.643,29.052,6.178,22.4,12.878,22.247" transform="translate(0 0)" fill="#ceeeff"/>
    </g>
  </g>
</svg>
