<svg xmlns="http://www.w3.org/2000/svg" xmlns:xlink="http://www.w3.org/1999/xlink" width="154.431" height="154" viewBox="0 0 154.431 154">
  <defs>
    <clipPath id="clip-path">
      <rect id="長方形_6095" data-name="長方形 6095" width="150.862" height="150.862" fill="#8bd7ff" stroke="#8bd7ff" stroke-width="3"/>
    </clipPath>
  </defs>
  <g id="グループ_3466" data-name="グループ 3466" transform="translate(-734.569 -3657)">
    <g id="グループ_3313" data-name="グループ 3313" transform="translate(734.569 3657.156)">
      <g id="グループ_3312" data-name="グループ 3312" clip-path="url(#clip-path)">
        <path id="パス_20476" data-name="パス 20476" d="M276.257,187.719a5.43,5.43,0,0,0-.413-4.166l-15.1-28.222a5.464,5.464,0,0,0-3.346-2.684,1.275,1.275,0,0,0-.139-.037,5.447,5.447,0,0,0-3.92.477L238.558,161l-34.471,18.438a5.467,5.467,0,0,0-2.242,7.4l15.1,28.222a5.45,5.45,0,0,0,3.654,2.759.854.854,0,0,0,.176.035,5.421,5.421,0,0,0,3.574-.552L273.6,190.953a5.416,5.416,0,0,0,2.473-2.732c.007-.017.012-.032.02-.05a4.088,4.088,0,0,0,.164-.452m-17.3-31.431,15.1,28.222a3.412,3.412,0,0,1,.35,2.24l-28.311-2.036,11.553-29.78a3.422,3.422,0,0,1,1.31,1.355M236.216,189.27l-.02,0-32.224-7.139a3.426,3.426,0,0,1,1.079-.9L254.3,154.877a3.424,3.424,0,0,1,1.337-.4l-11.936,30.767-.007.02-1.553,4a1.5,1.5,0,0,1-1.735.93ZM218.737,214.1l-15.1-28.222a3.417,3.417,0,0,1-.4-1.832l31.187,6.91-14.019,24.677a3.44,3.44,0,0,1-1.67-1.534m4.656,1.409a3.414,3.414,0,0,1-.743.291L236.5,191.416l3.467.768a3.474,3.474,0,0,0,.766.085,3.545,3.545,0,0,0,3.3-2.262l1.285-3.311,27.978,2.011a3.6,3.6,0,0,1-.656.457Z" transform="translate(-151.186 -114.55)" fill="#8bd7ff" stroke="#8bd7ff" stroke-width="3"/>
        <path id="パス_20477" data-name="パス 20477" d="M185.393,407.643l-17.63,9.647a1.017,1.017,0,0,0,.977,1.785l17.63-9.647a1.017,1.017,0,0,0-.977-1.785" transform="translate(-125.666 -306.225)" fill="#8bd7ff" stroke="#8bd7ff" stroke-width="3"/>
        <path id="パス_20478" data-name="パス 20478" d="M130.427,363.364a1.016,1.016,0,0,0-1.377-.408l-25.726,13.977a1.016,1.016,0,0,0,.485,1.909,1,1,0,0,0,.485-.124l25.726-13.977a1.012,1.012,0,0,0,.408-1.377" transform="translate(-77.243 -272.647)" fill="#8bd7ff" stroke="#8bd7ff" stroke-width="3"/>
        <path id="パス_20479" data-name="パス 20479" d="M129.3,326.95a1.022,1.022,0,0,0,.487-.124l17.648-9.647a1.017,1.017,0,0,0-.974-1.785l-17.648,9.647a1.017,1.017,0,0,0,.487,1.909" transform="translate(-96.395 -236.907)" fill="#8bd7ff" stroke="#8bd7ff" stroke-width="3"/>
      </g>
    </g>
    <g id="楕円形_34" data-name="楕円形 34" transform="translate(735 3657)" fill="none" stroke="#8bd7ff" stroke-width="6">
      <circle cx="77" cy="77" r="77" stroke="none"/>
      <circle cx="77" cy="77" r="74" fill="none"/>
    </g>
  </g>
</svg>
