<svg xmlns="http://www.w3.org/2000/svg" xmlns:xlink="http://www.w3.org/1999/xlink" width="154" height="154" viewBox="0 0 154 154">
  <defs>
    <clipPath id="clip-path">
      <rect id="長方形_6096" data-name="長方形 6096" width="150.862" height="150.862" fill="#8bd7ff" stroke="#8bd7ff" stroke-width="2"/>
    </clipPath>
  </defs>
  <g id="グループ_3591" data-name="グループ 3591" transform="translate(-1139 -3979)">
    <g id="楕円形_35" data-name="楕円形 35" transform="translate(1139 3979)" fill="none" stroke="#8bd7ff" stroke-width="6">
      <circle cx="77" cy="77" r="77" stroke="none"/>
      <circle cx="77" cy="77" r="74" fill="none"/>
    </g>
    <g id="グループ_3315" data-name="グループ 3315" transform="translate(1140.569 3979.156)">
      <g id="グループ_3314" data-name="グループ 3314" clip-path="url(#clip-path)">
        <path id="パス_20481" data-name="パス 20481" d="M210.562,158.512a1.4,1.4,0,0,0-.758-.758l-4.577-1.9a7.528,7.528,0,0,0-4.41-.416,1.469,1.469,0,0,0-.2.056l-2.609.958,3.153-7.612a3.745,3.745,0,0,0-2.025-4.888l-64.422-26.685a3.74,3.74,0,0,0-4.888,2.025l-11.713,28.278a3.74,3.74,0,0,0,2.025,4.888l24.755,10.254-1.928,4.655a1.4,1.4,0,0,0,.758,1.831l5.691,2.48-2.342,18.182H121.681V178.534a1.18,1.18,0,0,0-1.2-1.325h-8.324a1.44,1.44,0,0,0-1.514,1.325V203.5a1.79,1.79,0,0,0,1.514,1.7h8.324c.774,0,1.2-.931,1.2-1.7v-10.68H148.3a1.6,1.6,0,0,0,1.39-1.423l2.4-18.632,4.444,1.79a1.371,1.371,0,0,0,.536.082,1.453,1.453,0,0,0,1.294-.884L160.3,169.1l24.262,10.048a3.742,3.742,0,0,0,4.888-2.025l3.153-7.613,1.168,2.522a1.412,1.412,0,0,0,.1.18,7.5,7.5,0,0,0,3.413,2.824l4.577,1.9a1.4,1.4,0,0,0,1.831-.758l6.871-16.589a1.4,1.4,0,0,0,0-1.072m-91.843,43.736H113.6V180.17h5.116Zm37.6-30.864-10.228-4.236,1.392-3.36,10.228,4.236Zm30.542,4.665a.937.937,0,0,1-1.226.508L121.21,149.872a.939.939,0,0,1-.508-1.227l4.864-11.742,50.448,20.9a1.4,1.4,0,1,0,1.073-2.589l-50.448-20.9,5.777-13.947a.938.938,0,0,1,1.227-.508l64.423,26.685a.939.939,0,0,1,.508,1.226Zm14.778-2.242-3.282-1.36a4.711,4.711,0,0,1-2.089-1.693l-2.08-4.49,2.648-6.393,4.645-1.7a4.723,4.723,0,0,1,2.674.28l3.283,1.36Z" transform="translate(-80.853 -85.489)" fill="#8bd7ff" stroke="#8bd7ff" stroke-width="2"/>
        <path id="パス_20482" data-name="パス 20482" d="M291.5,271.942a1.881,1.881,0,1,0,1.881,1.881,1.883,1.883,0,0,0-1.881-1.881m0,2.8a.921.921,0,1,1,.921-.921.922.922,0,0,1-.921.921" transform="translate(-211.645 -198.725)" fill="#8bd7ff" stroke="#8bd7ff" stroke-width="2"/>
      </g>
    </g>
  </g>
</svg>
