<svg id="グループ_3311" data-name="グループ 3311" xmlns="http://www.w3.org/2000/svg" xmlns:xlink="http://www.w3.org/1999/xlink" width="153.844" height="153.844" viewBox="0 0 153.844 153.844">
  <defs>
    <clipPath id="clip-path">
      <rect id="長方形_6094" data-name="長方形 6094" width="153.844" height="153.844" fill="#8bd7ff"/>
    </clipPath>
  </defs>
  <g id="グループ_3310" data-name="グループ 3310" clip-path="url(#clip-path)">
    <path id="パス_20473" data-name="パス 20473" d="M76.921,153.844a76.922,76.922,0,1,1,76.922-76.922,77.009,77.009,0,0,1-76.922,76.922m0-147.634a70.712,70.712,0,1,0,70.712,70.711A70.791,70.791,0,0,0,76.921,6.21" fill="#8bd7ff"/>
    <path id="パス_20474" data-name="パス 20474" d="M268.5,195.309a3.1,3.1,0,0,0-1.623-2.669L230.505,172.9a3.1,3.1,0,0,0-2.962,0L191.166,192.64a3.1,3.1,0,0,0-1.623,2.669c-.3,15.54,2.877,28.747,9.443,39.254,6.375,10.2,16.077,18.085,28.838,23.431a3.107,3.107,0,0,0,2.4,0c12.76-5.346,22.462-13.229,28.838-23.431,6.566-10.506,9.743-23.713,9.443-39.254m-39.481,56.442c-22.425-9.848-33.33-27.709-33.291-54.524l33.291-18.07,33.291,18.07c.039,26.815-10.865,44.676-33.291,54.524" transform="translate(-152.102 -138.455)" fill="#8bd7ff"/>
    <path id="パス_20475" data-name="パス 20475" d="M313.229,334.021a3.1,3.1,0,0,0-4.391,4.391l8.005,8.005a3.1,3.1,0,0,0,4.391,0l18.028-18.027A3.1,3.1,0,0,0,334.87,324l-15.832,15.832Z" transform="translate(-247.127 -259.295)" fill="#8bd7ff"/>
  </g>
</svg>
