<svg id="グループ_3392" data-name="グループ 3392" xmlns="http://www.w3.org/2000/svg" xmlns:xlink="http://www.w3.org/1999/xlink" width="104.723" height="124.974" viewBox="0 0 104.723 124.974">
  <defs>
    <clipPath id="clip-path">
      <rect id="長方形_6580" data-name="長方形 6580" width="104.723" height="124.974" fill="none"/>
    </clipPath>
  </defs>
  <g id="グループ_3391" data-name="グループ 3391" clip-path="url(#clip-path)">
    <path id="パス_22530" data-name="パス 22530" d="M45.583,247.816l-2.139,1.517,5.38,15.733,2.927,4.505,24.126-4.11c5.361-7.327,1.006-21.266,1.006-21.266Z" transform="translate(-25.975 -146.005)" fill="#fff"/>
    <path id="パス_22531" data-name="パス 22531" d="M49.658,268.887a1.407,1.407,0,0,1-1.182-.641L45.55,263.74a1.4,1.4,0,0,1-.151-.311L40.018,247.7a1.407,1.407,0,0,1,.518-1.6l2.139-1.517a1.409,1.409,0,0,1,.652-.25l31.3-3.62a1.407,1.407,0,0,1,1.505.978c.187.6,4.5,14.706-1.214,22.517a1.407,1.407,0,1,1-2.271-1.662c4.042-5.524,1.959-15.554,1.1-18.9L44.009,247.08l-.987.7,4.984,14.573,2.832,4.359a1.408,1.408,0,0,1-1.179,2.174" transform="translate(-23.882 -143.913)" fill="#202933"/>
    <path id="パス_22532" data-name="パス 22532" d="M62.606,173.045l-4.377-.442L38.993,119.754a5.045,5.045,0,0,0-5.4-3.163l-23.377,4.122L7.2,117.693l-3.268,5.314h0a3.481,3.481,0,0,0-.186,2.96l4.593,12.619,5.984,16.442,9.8,26.93a5.045,5.045,0,0,0,5.4,3.164l27.261-4.807a3.333,3.333,0,0,0,2.511-1.835Z" transform="translate(-2.097 -69.672)" fill="#fff"/>
    <path id="パス_22533" data-name="パス 22533" d="M26.677,184.5a6.471,6.471,0,0,1-5.969-4.155L.329,124.355a4.86,4.86,0,0,1,.263-4.1c.015-.028.031-.056.047-.083l3.268-5.314a1.407,1.407,0,0,1,2.2-.257l2.5,2.5,22.655-3.994a6.426,6.426,0,0,1,6.966,4.068L57.152,169.2l3.5.353a1.407,1.407,0,0,1,1.061,2.132l-3.272,5.378a4.746,4.746,0,0,1-3.5,2.546l-27.26,4.807a5.716,5.716,0,0,1-1,.087M3.06,121.612l0,0a2.089,2.089,0,0,0-.084,1.778l20.379,55.99a3.641,3.641,0,0,0,3.832,2.259l27.261-4.807a1.938,1.938,0,0,0,1.483-1.051,1.341,1.341,0,0,1,.07-.129l2.147-3.528-2.156-.218a1.408,1.408,0,0,1-1.181-.919L35.573,118.141a3.641,3.641,0,0,0-3.832-2.259L8.364,120a1.406,1.406,0,0,1-1.24-.392L5.37,117.856Z" transform="translate(0 -67.577)" fill="#202933"/>
    <path id="パス_22534" data-name="パス 22534" d="M46.992,106.753a5.045,5.045,0,0,0-5.4-3.164L14.332,108.4a3.308,3.308,0,0,0-2.584,4.571l6.169,16.949,4.409,12.112,9.8,26.93a5.045,5.045,0,0,0,5.4,3.163l27.26-4.807a3.308,3.308,0,0,0,2.584-4.571Z" transform="translate(-6.88 -61.898)" fill="#fffb57"/>
    <path id="パス_22535" data-name="パス 22535" d="M48.32,111.89l-14.048,2.477a2.383,2.383,0,0,1-2.551-1.495L30.275,108.9l17.819-3.142,1.446,3.974a1.563,1.563,0,0,1-1.221,2.16" transform="translate(-18.102 -63.232)" fill="#fff"/>
    <path id="パス_22536" data-name="パス 22536" d="M31.832,113.711a3.822,3.822,0,0,1-3.526-2.451l-1.447-3.974a1.407,1.407,0,0,1,1.078-1.867l17.819-3.142a1.406,1.406,0,0,1,1.567.9l1.446,3.974a3.062,3.062,0,0,1-.192,2.586,3.015,3.015,0,0,1-2.107,1.441l-14.048,2.477a3.414,3.414,0,0,1-.591.051M30.078,107.9l.873,2.4a.98.98,0,0,0,.984.59l14.048-2.477a.23.23,0,0,0,.158-.076.282.282,0,0,0-.015-.216l-1.043-2.865Zm16.149,1.9h0Z" transform="translate(-16.009 -61.139)" fill="#202933"/>
    <path id="パス_22537" data-name="パス 22537" d="M48.235,169.179a1.407,1.407,0,0,1-.243-2.793l14.463-2.55a1.982,1.982,0,0,0,1.421-.923,2.088,2.088,0,0,0,.084-1.78L43.582,105.141a3.64,3.64,0,0,0-3.832-2.259l-27.26,4.807a1.985,1.985,0,0,0-1.422.924,2.09,2.09,0,0,0-.084,1.781l6.169,16.948a1.407,1.407,0,1,1-2.645.963L8.338,111.355a4.917,4.917,0,0,1,.292-4.15A4.749,4.749,0,0,1,12,104.917l27.261-4.807a6.426,6.426,0,0,1,6.966,4.068l20.379,55.991a4.917,4.917,0,0,1-.292,4.15,4.748,4.748,0,0,1-3.37,2.288l-14.463,2.55a1.389,1.389,0,0,1-.246.022" transform="translate(-4.792 -59.804)" fill="#202933"/>
    <path id="パス_22538" data-name="パス 22538" d="M29.33,201.124s-.861-7.357-4.788-13.013c-4.074-5.869-9.311-6.728-10.861-4.33-2.056,3.178,1.773,5.9,3.685,10.054,3.656,7.95,4.576,21.974,6.14,25.591,3.067,7.095,10.1,13.278,10.1,13.278l12.6-9.125s-.755-7.753-5.271-13.392c-3.8-4.748-11.6-9.063-11.6-9.063" transform="translate(-7.828 -109.138)" fill="#fff"/>
    <path id="パス_22539" data-name="パス 22539" d="M31.512,232.018a1.4,1.4,0,0,1-.929-.351c-.3-.261-7.3-6.476-10.459-13.777a46.393,46.393,0,0,1-1.835-8.347C17.334,203.957,16.147,197,14,192.329a23.638,23.638,0,0,0-2.043-3.392c-1.619-2.374-3.454-5.064-1.545-8.014a4.332,4.332,0,0,1,3.725-1.889c3.177-.055,6.792,2.317,9.475,6.182a33.364,33.364,0,0,1,4.927,12.934c1.961,1.144,8.062,4.893,11.4,9.064,4.724,5.9,5.541,13.8,5.574,14.136a1.407,1.407,0,1,1-2.8.273c-.014-.136-.8-7.441-4.97-12.649-3.581-4.471-11.107-8.669-11.183-8.711a1.407,1.407,0,0,1-.716-1.068c-.008-.069-.876-7.087-4.546-12.374-2.578-3.714-5.452-5-7.116-4.972a1.657,1.657,0,0,0-1.408.6c-.815,1.261-.234,2.345,1.508,4.9a26.183,26.183,0,0,1,2.275,3.8c2.3,5.011,3.526,12.167,4.508,17.917a47.925,47.925,0,0,0,1.645,7.7c2.9,6.712,9.667,12.721,9.735,12.781a1.407,1.407,0,0,1-.93,2.464" transform="translate(-5.737 -107.044)" fill="#202933"/>
    <path id="パス_22540" data-name="パス 22540" d="M145.593,158.675c-2.156-1.943-7.208-3.232-7.208-3.232a54.841,54.841,0,0,0-5.283-3.713c-1.84-1-7.307-1.116-7.307-1.116s-13.013-5.916-16.506-5.917a34.564,34.564,0,0,0-10.041,2.189c-5.008,1.822-8.972,1.865-9.4,5.033-.379,2.793,4.444,3.967,7.618,3.819a106.629,106.629,0,0,0,11.132-1.877l7.555,4.5s-2.793,4.473-3.07,6.095,1.082,5.219,1.082,5.219l-1.34.21s-8.657-3.858-11.025-.179c-1.721,2.673,2.127,4.908,4.346,6.363a68.17,68.17,0,0,1,9.194,6.38,37.748,37.748,0,0,0,9.706,5.275c5.368,2.169,11.016,2.011,14.526,4.309l17.451-17.391c-4.348-4.432-9.816-14.507-11.43-15.962" transform="translate(-53.707 -86.515)" fill="#fff"/>
    <path id="パス_22541" data-name="パス 22541" d="M137.478,191.343a1.4,1.4,0,0,1-.77-.23c-1.7-1.111-4.066-1.593-6.809-2.151a41.934,41.934,0,0,1-7.474-2.031c-5.543-2.239-8.539-4.224-10.075-5.495a53.893,53.893,0,0,0-7.343-5.213c-.6-.361-1.16-.7-1.727-1.074l-.435-.283c-2.339-1.515-6.693-4.336-4.323-8.019,2.408-3.74,8.787-1.878,11.558-.84a10.164,10.164,0,0,1-.479-3.883,22.339,22.339,0,0,1,2.518-5.374l-5.863-3.489a96.908,96.908,0,0,1-10.82,1.791c-2.711.128-6.405-.587-8.115-2.454a3.565,3.565,0,0,1-.963-2.959c.439-3.244,3.345-4.075,6.71-5.037,1.092-.312,2.33-.666,3.6-1.13a36.047,36.047,0,0,1,10.52-2.274h0c3.517,0,14.612,4.926,16.827,5.925,1.422.043,5.778.255,7.659,1.28a51.577,51.577,0,0,1,5.249,3.662c1.22.332,5.4,1.571,7.511,3.473.754.679,1.8,2.283,3.735,5.294,2.343,3.645,5.259,8.181,7.757,10.727a1.407,1.407,0,0,1-2.009,1.971c-2.7-2.753-5.7-7.423-8.116-11.176a43.661,43.661,0,0,0-3.252-4.725c-1.552-1.4-5.3-2.578-6.614-2.914a1.407,1.407,0,0,1-.522-.258,54.007,54.007,0,0,0-5.085-3.582c-1.06-.577-4.535-.9-6.664-.945a1.411,1.411,0,0,1-.552-.126c-4.924-2.238-13.6-5.79-15.925-5.791h0a33.555,33.555,0,0,0-9.557,2.1c-1.368.5-2.656.866-3.793,1.191-3.267.934-4.518,1.41-4.694,2.709a.764.764,0,0,0,.25.68c.881.963,3.53,1.655,5.908,1.544a106.289,106.289,0,0,0,10.9-1.846,1.407,1.407,0,0,1,1.018.166l7.555,4.5a1.407,1.407,0,0,1,.474,1.955,28.4,28.4,0,0,0-2.875,5.585,13.533,13.533,0,0,0,1.011,4.486,1.408,1.408,0,0,1-1.1,1.887l-1.34.21a1.411,1.411,0,0,1-.79-.1c-2.466-1.095-7.978-2.708-9.269-.7-.713,1.107.739,2.353,3.486,4.133l.448.292c.525.344,1.068.673,1.642,1.021a57.012,57.012,0,0,1,7.678,5.451c1.133.936,3.852,2.839,9.336,5.054a39.129,39.129,0,0,0,6.981,1.882c2.9.59,5.64,1.147,7.789,2.554a1.407,1.407,0,0,1-.772,2.585" transform="translate(-51.614 -84.422)" fill="#202933"/>
    <path id="パス_22542" data-name="パス 22542" d="M153.262,206.008a1.414,1.414,0,0,1-.337-.041,61.513,61.513,0,0,1-8.569-3.364,1.407,1.407,0,1,1,1.147-2.57c3.022,1.349,5.07,2.156,6.352,2.622v-3.973a1.407,1.407,0,1,1,2.815,0V204.6a1.407,1.407,0,0,1-1.407,1.407" transform="translate(-85.812 -117.952)" fill="#202933"/>
    <path id="パス_22543" data-name="パス 22543" d="M157.361,181.631a1.4,1.4,0,0,1-.927-.349l-4.156-3.645a1.407,1.407,0,1,1,1.856-2.116l4.156,3.644a1.408,1.408,0,0,1-.928,2.466" transform="translate(-90.76 -104.736)" fill="#202933"/>
    <path id="パス_22544" data-name="パス 22544" d="M160.591,9.3a24.677,24.677,0,0,0-34.313,35.3l-1.93,7.762,7.319-3.227A24.677,24.677,0,0,0,160.591,9.3" transform="translate(-71.763 -2.095)" fill="#fff"/>
    <path id="パス_22545" data-name="パス 22545" d="M142.593,52.142a25.872,25.872,0,0,1-13.067-3.519l-6.65,2.932a1.407,1.407,0,0,1-1.933-1.628l1.754-7.053A26.2,26.2,0,0,1,122.7,9.29a26.085,26.085,0,1,1,19.89,42.852m-12.966-6.509a1.406,1.406,0,0,1,.745.213,23.366,23.366,0,0,0,30.092-4.774A23.271,23.271,0,0,0,124.856,11.1a23.368,23.368,0,0,0,.431,30.466,1.407,1.407,0,0,1,.316,1.277l-1.238,4.977,4.693-2.07a1.405,1.405,0,0,1,.568-.119" transform="translate(-69.723 0)" fill="#202933"/>
    <path id="パス_22546" data-name="パス 22546" d="M161.258,60.22h-.088a4.825,4.825,0,0,1-3.446-1.539l-4.8-5.167a4.825,4.825,0,1,1,7.068-6.571l1.4,1.5,5.944-5.944a4.825,4.825,0,0,1,6.824,6.824l-9.482,9.482a4.825,4.825,0,0,1-3.412,1.413" transform="translate(-90.66 -24.566)" fill="#202933"/>
    <path id="パス_22547" data-name="パス 22547" d="M165.742,61.688h-.033a1.809,1.809,0,0,1-1.292-.577l-4.8-5.167a1.81,1.81,0,0,1,2.651-2.464l3.526,3.792,8.155-8.155a1.809,1.809,0,0,1,2.559,2.559l-9.482,9.482a1.809,1.809,0,0,1-1.279.53" transform="translate(-95.144 -29.051)" fill="#fffb57"/>
  </g>
</svg>
