<svg xmlns="http://www.w3.org/2000/svg" width="512" height="512" viewBox="0 0 512 512">
  <path id="circle-user-regular" d="M406.5,399.6A128.071,128.071,0,0,0,288,320H224a128.071,128.071,0,0,0-118.5,79.6A207.547,207.547,0,0,1,48,256C48,141.1,141.1,48,256,48s208,93.1,208,208A207.547,207.547,0,0,1,406.5,399.6Zm-40.1,32.7a208.266,208.266,0,0,1-220.9,0A80.047,80.047,0,0,1,224,368h64a80.047,80.047,0,0,1,78.5,64.3ZM256,512c141.385,0,256-114.615,256-256S397.385,0,256,0,0,114.615,0,256,114.615,512,256,512Zm0-272a40,40,0,1,1,40-40A40,40,0,0,1,256,240Zm-88-40a88,88,0,1,0,88-88,88,88,0,0,0-88,88Z"/>
</svg>
