<?xml version="1.0" encoding="UTF-8"?>
<svg id="_レイヤー_1" data-name="レイヤー 1" xmlns="http://www.w3.org/2000/svg" viewBox="0 0 76.09 76.77">
  <defs>
    <style>
      .cls-1 {
        fill: #fff;
        stroke-width: 0px;
      }
    </style>
  </defs>
  <path class="cls-1" d="m76.05,33.43c-.02-8.99-4.03-17.42-11.28-23.74C57.32,3.34,47.82-.1,38.03,0,17.06,0,0,15.03,0,33.5s16.36,32.89,36.74,33.49v6.99c0,1.55,1.26,2.8,2.81,2.79.52,0,1.03-.15,1.47-.42,7.87-4.94,17.79-11.57,24.8-19.08,7.3-7.82,10.65-15.62,10.24-23.84m-55.56,7.06c-3,0-5.43-2.43-5.43-5.42s2.43-5.43,5.42-5.43,5.43,2.43,5.43,5.42h0c0,3-2.43,5.43-5.42,5.43m17.54,0c-3,0-5.42-2.43-5.42-5.43,0-3,2.43-5.42,5.43-5.42,3,0,5.42,2.43,5.42,5.43s-2.43,5.42-5.42,5.42h0m17.54,0c-3,0-5.42-2.43-5.43-5.42,0-3,2.43-5.43,5.42-5.43s5.43,2.43,5.43,5.42h0c0,3-2.43,5.42-5.42,5.43h0"/>
</svg>