<?xml version="1.0" encoding="UTF-8"?>
<svg id="_レイヤー_1" data-name="レイヤー 1" xmlns="http://www.w3.org/2000/svg" viewBox="0 0 78.05 78.07">
  <defs>
    <style>
      .cls-1 {
        fill: #fff;
        stroke-width: 0px;
      }
    </style>
  </defs>
  <path class="cls-1" d="m74.98,23.85C66.6,3.99,43.7-5.3,23.85,3.09,3.99,11.47-5.3,34.37,3.09,54.22c1.8,4.26,4.35,8.17,7.51,11.54,3.58,3.81,7.89,6.87,12.68,8.98,12.56,5.55,27.12,4.08,38.31-3.87,2.12-1.51,4.09-3.22,5.87-5.11,10.57-11.26,13.52-27.69,7.52-41.92m-9.52,40.04c-.47.5-.94.98-1.43,1.44-6.89-13.81-23.66-19.42-37.47-12.54-5.43,2.71-9.83,7.11-12.54,12.54-.49-.47-.97-.95-1.43-1.44C-1.14,49.29-.43,26.33,14.18,12.6,28.78-1.13,51.74-.42,65.47,14.18c13.13,13.97,13.13,35.74,0,49.71"/>
  <path class="cls-1" d="m39.03,19.63c-7.64,0-13.84,6.2-13.84,13.84s6.2,13.84,13.84,13.84,13.84-6.2,13.84-13.84h0c0-7.64-6.2-13.84-13.84-13.84h0"/>
</svg>