<svg xmlns="http://www.w3.org/2000/svg" viewBox="0 0 141.19 9.33">
  <path fill="#4090ed" d="M128.04 0c-.3 0-.59.01-.89.04-2.81.29-5.53 1.16-7.98 2.56-.92.5-1.82 1.04-2.69 1.62-.76-.52-1.54-.99-2.36-1.42a18.476 18.476 0 0 0-8.74-2.39c-.62 0-1.25.05-1.87.12a25.46 25.46 0 0 0-7.38 2.26c-1.04.48-2.06 1.02-3.06 1.6-.8-.53-1.63-1.01-2.48-1.44a19.113 19.113 0 0 0-8.68-2.3c-.48 0-.96.03-1.45.08-2.64.32-5.2 1.08-7.59 2.24-1.01.46-2 .98-2.96 1.54-.77-.48-1.56-.92-2.38-1.32a19.159 19.159 0 0 0-8.45-2.13c-.51 0-1.03.03-1.57.09-2.52.31-4.98 1.01-7.29 2.06-.99.43-1.97.91-2.92 1.44-.77-.47-1.56-.9-2.38-1.29a19.807 19.807 0 0 0-8.48-2.06c-.71 0-1.42.05-2.12.14-2.39.34-4.73.98-6.96 1.9-1.1.44-2.13.91-3.07 1.38l-.07.03c-.83-.52-1.7-.99-2.58-1.42a19.399 19.399 0 0 0-8.47-2.18h-.39c-2.83.17-5.6.93-8.13 2.22a31.515 31.515 0 0 0-3.53 1.99c-.14.1-.25.17-.31.21-.93.69-1.12 2-.43 2.93.67.9 1.93 1.11 2.86.48.03-.02.09-.07.2-.14.19-.12.4-.26.65-.41.76-.47 1.55-.89 2.36-1.28 2.01-1.03 4.2-1.65 6.46-1.81h.27c2.31.08 4.57.69 6.62 1.76.77.37 1.52.79 2.25 1.24.23.15.44.28.61.4.1.07.16.11.19.13.67.49 1.56.54 2.28.13l.25-.14a35.485 35.485 0 0 1 3.51-1.63c1.9-.79 3.9-1.35 5.93-1.64.54-.07 1.08-.11 1.62-.11 2.32.05 4.6.61 6.68 1.65a18.927 18.927 0 0 1 2.68 1.53l.16.11c.69.52 1.64.55 2.37.09l.23-.14c.21-.12.45-.26.72-.41.84-.46 1.71-.89 2.59-1.27 1.92-.88 3.96-1.46 6.05-1.73.4-.04.78-.06 1.15-.07 2.3.06 4.56.65 6.6 1.71.74.36 1.47.76 2.16 1.21.22.14.41.27.58.38.09.06.15.11.17.12.71.54 1.69.57 2.43.07 0 0 .16-.11.23-.15.21-.13.45-.28.73-.44.85-.5 1.73-.95 2.62-1.37 1.97-.96 4.08-1.59 6.25-1.88.36-.04.71-.06 1.05-.06 2.37.08 4.69.71 6.77 1.85.77.39 1.51.83 2.23 1.31.23.15.43.29.6.42.1.07.15.11.18.13.71.56 1.71.6 2.46.1 0 0 .17-.11.24-.15.22-.14.48-.29.76-.46.88-.52 1.79-.99 2.72-1.42 1.94-.94 4.01-1.59 6.14-1.91.45-.06.91-.09 1.36-.09 2.38.07 4.7.73 6.77 1.91.76.4 1.49.85 2.2 1.35.26.18.52.37.76.56.76.63 1.85.64 2.63.03.03-.02.1-.08.22-.16.2-.14.43-.31.69-.48.8-.54 1.62-1.04 2.48-1.5a16.6 16.6 0 0 1 6.32-2.08c.2-.02.4-.02.6-.03 2.34.1 4.62.8 6.62 2.03.78.44 1.53.92 2.25 1.45a15.315 15.315 0 0 1 .79.62 2.09 2.09 0 1 0 2.76-3.14c-.01-.01-.03-.02-.04-.03-.1-.08-.2-.17-.3-.25-.22-.18-.47-.37-.76-.57-.85-.62-1.74-1.2-2.67-1.72a17.736 17.736 0 0 0-8.68-2.57"/>
</svg>