<svg xmlns="http://www.w3.org/2000/svg" width="1600" height="80.081" viewbox="0 0 1600 80.081">
  <defs>
    <linearGradient id="a" x1="1" x2="0" y1="-.858" y2="-.885" gradientUnits="objectBoundingBox">
      <stop offset="0" stop-color="#0f57ac"/>
      <stop offset="1" stop-color="#57a2fa"/>
    </linearGradient>
  </defs>
  <path fill="#fff" d="M0 80.081h1600V49.294s-92.172-29.372-286.032-35.125-309.031 17.973-399.112 23.984-250.025 20.262-250.025 20.262-220.556 14.934-313.237 14.926S0 32.028 0 32.028Z" data-name="パス 18727"/>
  <path fill="url(#a)" d="M365.179 80.081c-50.139 0-100.537-1.909-149.8-5.671-39.401-3.01-78.169-7.21-115.222-12.471-32.967-4.686-58.443-9.369-74.009-12.472C9.36 46.121.09 43.821 0 43.8V17c.1.027 10.693 2.955 30.311 7.361 17.941 4.029 47.155 10.11 84.445 16.2 41.905 6.838 85.257 12.287 128.851 16.2 54.487 4.885 109.506 7.362 163.529 7.363 9.934 0 20-.085 29.905-.252 59.658-1.006 114.138-2.567 166.552-4.772 51.445-2.165 100.179-4.922 148.987-8.428-17.371 1.807-35 3.68-52.046 5.493l-.066.007h-.027c-52.654 5.6-107.1 11.385-159.5 15.769-28.19 2.359-53.635 4.142-77.79 5.453-27.082 1.469-51.893 2.313-75.848 2.578-7.346.068-14.791.109-22.124.109ZM1600 60.014c-.068-.026-6.982-2.664-20.313-6.523-12.34-3.571-32.89-8.96-60.712-14.35-31.275-6.061-65.175-10.889-100.763-14.351-44.488-4.328-91.747-6.523-140.464-6.523-22.389 0-45.447.467-68.532 1.387-97.071 4.152-207.75 10.438-296.067 16.816 48.983-5.089 102.177-11.26 162.624-18.867 46.072-5.8 90.9-10.223 133.23-13.15C1251.724 1.5 1292.889 0 1331.353 0c26.575 0 52.417.716 76.807 2.128 24.607 1.424 48.38 3.594 70.659 6.45 22.5 2.883 44.057 6.541 64.088 10.871A558.393 558.393 0 0 1 1600 34.842v25.171Z" data-name="前面オブジェクトで型抜き 1"/>
</svg>
