<?xml version="1.0" encoding="UTF-8"?>
<svg id="b" data-name="レイヤー 2" xmlns="http://www.w3.org/2000/svg" viewBox="0 0 1600 36.2">
  <defs>
    <style>
      .e {
        fill: #FFF;
        stroke-width: 0px;
      }
    </style>
  </defs>
  <g id="c" data-name="レイヤー 1">
    <path id="d" data-name="前面オブジェクトで型抜き 1" class="e" d="M1600,36.2h0c-8.06.03-16.12-.35-24.15-1.13-6.4-.63-12.75-1.62-19.04-2.97-11.37-2.46-20.61-5.79-29.55-9.01s-18.18-6.55-29.55-9.01c-6.28-1.35-12.64-2.34-19.04-2.97-16.07-1.5-32.23-1.5-48.3,0-6.4.63-12.75,1.62-19.04,2.97-11.36,2.46-20.61,5.79-29.55,9.01s-18.18,6.55-29.55,9.01c-6.28,1.35-12.64,2.34-19.04,2.97-8.03.78-16.09,1.16-24.15,1.13-8.06.03-16.12-.34-24.15-1.13-6.39-.63-12.75-1.62-19.03-2.97-11.36-2.46-20.6-5.78-29.54-9s-18.18-6.55-29.55-9.01c-6.28-1.35-12.64-2.34-19.03-2.97-16.07-1.5-32.23-1.5-48.3,0-6.4.63-12.75,1.62-19.03,2.97-11.36,2.46-20.61,5.79-29.55,9.01s-18.18,6.55-29.55,9.01c-6.28,1.35-12.64,2.34-19.03,2.97-8.03.78-16.08,1.16-24.15,1.13-8.06.03-16.12-.34-24.15-1.13-6.4-.63-12.75-1.62-19.03-2.97-11.36-2.46-20.61-5.79-29.54-9.01s-18.18-6.55-29.54-9.01c-6.28-1.35-12.64-2.34-19.03-2.97-16.06-1.5-32.23-1.5-48.29,0-6.4.63-12.75,1.62-19.03,2.97-11.36,2.46-20.6,5.78-29.54,9h0c-8.94,3.22-18.18,6.55-29.54,9-6.28,1.35-12.64,2.34-19.03,2.97-8.02.79-16.08,1.17-24.15,1.14-8.06.03-16.12-.34-24.15-1.13-6.4-.63-12.75-1.62-19.03-2.97-11.36-2.46-20.61-5.79-29.55-9.01s-18.18-6.55-29.54-9.01c-6.28-1.35-12.64-2.34-19.03-2.97-16.06-1.5-32.23-1.5-48.29,0-6.4.63-12.75,1.62-19.03,2.97-11.36,2.46-20.61,5.79-29.54,9.01s-18.18,6.55-29.54,9.01c-6.28,1.35-12.64,2.34-19.03,2.97-8.02.78-16.08,1.16-24.15,1.13-8.06.03-16.12-.34-24.15-1.13-6.4-.63-12.75-1.62-19.03-2.97-11.36-2.46-20.61-5.79-29.55-9.01s-18.18-6.55-29.55-9.01c-6.28-1.35-12.64-2.34-19.03-2.97-16.06-1.5-32.23-1.5-48.29,0-6.4.63-12.75,1.62-19.03,2.97-11.36,2.46-20.61,5.79-29.54,9.01s-18.18,6.56-29.54,9.01c-6.28,1.35-12.64,2.34-19.03,2.97-8.02.78-16.08,1.16-24.15,1.13-8.06.03-16.13-.34-24.15-1.13-6.39-.63-12.75-1.62-19.03-2.97-11.37-2.45-20.61-5.78-29.55-9s-18.18-6.55-29.54-9.01c-6.28-1.35-12.64-2.34-19.03-2.97-8.02-.78-16.08-1.16-24.15-1.13V0h1600s0,36.2,0,36.2Z"/>
  </g>
</svg>