<svg xmlns="http://www.w3.org/2000/svg" xmlns:xlink="http://www.w3.org/1999/xlink" width="57.606" height="47.49" viewBox="0 0 57.606 47.49">
  <defs>
    <clipPath id="clip-path">
      <rect id="長方形_6061" data-name="長方形 6061" width="50.058" height="35.752" fill="none"/>
    </clipPath>
  </defs>
  <g id="グループ_3318" data-name="グループ 3318" transform="matrix(-0.966, -0.259, 0.259, -0.966, 48.353, 47.49)">
    <g id="グループ_3255" data-name="グループ 3255" clip-path="url(#clip-path)">
      <path id="パス_18303" data-name="パス 18303" d="M17.624,16.731a9.315,9.315,0,0,1-2.374,8.153A9.156,9.156,0,0,1,4.921,26.608,9.156,9.156,0,0,1,.09,17.317c1.177-7.847,12.688-9.851,16.635-3a7.92,7.92,0,0,1,.9,2.418" transform="translate(0 -7.888)" fill="#fcf566"/>
      <path id="パス_18304" data-name="パス 18304" d="M166.139,2.938q3.941,2.356,7.753,4.672a18.173,18.173,0,0,0-7.753-4.672" transform="translate(-129.153 -2.284)" fill="#a8e6f0"/>
      <path id="パス_18305" data-name="パス 18305" d="M140.154.013a17.784,17.784,0,0,0-2.309.063c6.16,3.639,12.2,7.3,17.858,10.757a18.366,18.366,0,0,0-1.142-2.14c-4.617-2.818-9.466-5.748-14.407-8.68" transform="translate(-107.158 0)" fill="#a8e6f0"/>
      <path id="パス_18306" data-name="パス 18306" d="M121.612,1.969q-.841.186-1.666.448c8.028,4.71,15.917,9.5,23.086,13.9a16.884,16.884,0,0,0-.4-1.691c-6.579-4.034-13.73-8.37-21.016-12.657" transform="translate(-93.244 -1.531)" fill="#a8e6f0"/>
      <path id="パス_18307" data-name="パス 18307" d="M105.825,7.642c9.257,5.4,18.383,10.957,26.5,15.946q.016-.731-.031-1.463c-7.736-4.754-16.36-10-25.121-15.122q-.684.294-1.343.64" transform="translate(-82.266 -5.443)" fill="#a8e6f0"/>
      <path id="パス_18308" data-name="パス 18308" d="M95.307,13.753q-.571.368-1.112.776c10.076,5.862,20.04,11.933,28.754,17.3q.129-.654.209-1.316c-8.475-5.216-18.1-11.079-27.852-16.759" transform="translate(-73.225 -10.691)" fill="#a8e6f0"/>
      <path id="パス_18309" data-name="パス 18309" d="M85.5,21.789c-.186.169-.37.339-.548.515-.125.123-.247.248-.368.375C95.165,28.82,105.646,35.213,114.72,40.8q.216-.6.392-1.2c-8.938-5.5-19.221-11.775-29.608-17.81" transform="translate(-65.757 -16.938)" fill="#a8e6f0"/>
      <path id="パス_18310" data-name="パス 18310" d="M77.569,30.933q-.384.485-.73,1c10.8,6.261,21.507,12.8,30.736,18.485q.293-.545.549-1.107C98.94,43.651,88.3,37.158,77.569,30.933" transform="translate(-59.733 -24.047)" fill="#a8e6f0"/>
      <path id="パス_18311" data-name="パス 18311" d="M71.481,41.149c-.072.134-.143.268-.211.4q-.176.35-.332.7C81.685,48.492,92.343,55,101.532,60.659q.366-.5.7-1.015C93,53.956,82.284,47.416,71.481,41.149" transform="translate(-55.146 -31.988)" fill="#a8e6f0"/>
      <path id="パス_18312" data-name="パス 18312" d="M67.205,52.425q-.206.605-.361,1.213C77.274,59.7,87.6,66,96.556,71.516q.442-.444.855-.919c-9.086-5.6-19.6-12.012-30.205-18.173" transform="translate(-51.963 -40.754)" fill="#a8e6f0"/>
      <path id="パス_18313" data-name="パス 18313" d="M64.914,64.794q-.1.669-.149,1.337c9.815,5.722,19.5,11.625,28,16.859q.532-.385,1.033-.809C85.063,76.8,75.048,70.693,64.914,64.794" transform="translate(-50.347 -50.37)" fill="#a8e6f0"/>
      <path id="パス_18314" data-name="パス 18314" d="M64.636,78.475q.026.752.12,1.5c8.83,5.171,17.508,10.452,25.266,15.223q.647-.306,1.264-.667c-8.136-5.006-17.32-10.6-26.65-16.051" transform="translate(-50.247 -61.005)" fill="#a8e6f0"/>
      <path id="パス_18315" data-name="パス 18315" d="M66.768,93.888q.212.875.509,1.727c7.33,4.321,14.507,8.679,21.087,12.718a16.057,16.057,0,0,0,1.6-.46c-7.181-4.412-15.112-9.232-23.2-13.985" transform="translate(-51.904 -72.987)" fill="#a8e6f0"/>
      <path id="パス_18316" data-name="パス 18316" d="M73.479,112.037a20.063,20.063,0,0,0,1.291,2.2c4.883,2.906,9.663,5.8,14.205,8.577a15.819,15.819,0,0,0,2.332-.016c-5.63-3.449-11.662-7.107-17.828-10.759" transform="translate(-57.121 -87.095)" fill="#a8e6f0"/>
      <path id="パス_18317" data-name="パス 18317" d="M93.024,137.924a19.34,19.34,0,0,0,6.857,4.144q-3.366-2.046-6.857-4.144" transform="translate(-72.315 -107.219)" fill="#a8e6f0"/>
    </g>
  </g>
</svg>
