<svg xmlns="http://www.w3.org/2000/svg" data-name="グループ 3293" viewBox="0 0 45.328 43.273">
  <defs>
    <clipPath id="a">
      <path fill="none" d="M0 0h45.328v43.273H0z" data-name="長方形 6060"/>
    </clipPath>
  </defs>
  <g clip-path="url(#a)" data-name="グループ 3253">
    <path fill="#fcf566" d="M39.957 1.955a862.279 862.279 0 0 1 3.994 4.569 12.185 12.185 0 0 0-3.994-4.569" data-name="パス 18163"/>
    <path fill="#fcf566" d="M37.542.729a11.887 11.887 0 0 0-1.487-.432c3.188 3.583 6.3 7.153 9.2 10.52a12.313 12.313 0 0 0-.291-1.6A901.12 901.12 0 0 0 37.542.729" data-name="パス 18164"/>
    <path fill="#fcf566" d="M34.5.055Q33.925 0 33.345 0A890.426 890.426 0 0 1 45.24 13.6a11.244 11.244 0 0 0 .088-1.163A886.85 886.85 0 0 0 34.5.055" data-name="パス 18165"/>
    <path fill="#fcf566" d="M31.07.195c4.8 5.344 9.5 10.755 13.653 15.6q.16-.463.28-.941c-3.966-4.618-8.4-9.728-12.945-14.793q-.5.048-.988.134" data-name="パス 18166"/>
    <path fill="#fcf566" d="M29.949.443q-.439.119-.868.268c5.234 5.8 10.352 11.717 14.819 16.926q.216-.391.4-.8c-4.344-5.064-9.291-10.776-14.353-16.4" data-name="パス 18167"/>
    <path fill="#fcf566" d="M28.094 1.108c-.153.069-.305.141-.455.217-.1.053-.209.108-.311.164 5.5 6.083 10.88 12.309 15.529 17.734q.26-.336.5-.688c-4.58-5.343-9.862-11.449-15.259-17.426" data-name="パス 18168"/>
    <path fill="#fcf566" d="M26.457 2.017q-.344.231-.67.488c5.611 6.206 11.112 12.57 15.841 18.088q.3-.288.577-.595C37.5 14.507 32.034 8.185 26.458 2.016" data-name="パス 18169"/>
    <path fill="#fcf566" d="M25.034 3.162c-.073.071-.146.142-.217.215q-.184.188-.356.381c5.585 6.18 11.059 12.512 15.767 18.007q.335-.242.653-.505c-4.729-5.519-10.233-11.887-15.848-18.1" data-name="パス 18170"/>
    <path fill="#fcf566" d="M23.823 4.541q-.255.344-.479.7c5.419 6 10.722 12.137 15.311 17.491q.374-.193.734-.412c-4.656-5.432-10.054-11.676-15.566-17.78" data-name="パス 18171"/>
    <path fill="#fcf566" d="M22.832 6.16q-.2.406-.369.823c5.1 5.661 10.071 11.41 14.429 16.491q.418-.137.825-.3c-4.477-5.223-9.622-11.17-14.885-17.009" data-name="パス 18172"/>
    <path fill="#fcf566" d="M22.092 8.068q-.137.486-.229.979c4.579 5.108 9.04 10.254 13.016 14.887q.476-.063.943-.168c-4.17-4.86-8.889-10.31-13.73-15.7" data-name="パス 18173"/>
    <path fill="#fcf566" d="M21.693 10.356q-.044.6-.028 1.207c3.8 4.258 7.486 8.508 10.861 12.432a10.766 10.766 0 0 0 1.117.034 930.477 930.477 0 0 0-11.95-13.673" data-name="パス 18174"/>
    <path fill="#fcf566" d="M21.82 13.241a13.41 13.41 0 0 0 .375 1.667 937.742 937.742 0 0 1 7.314 8.382 10.566 10.566 0 0 0 1.492.467 933.473 933.473 0 0 0-9.181-10.516" data-name="パス 18175"/>
    <path fill="#fcf566" d="M23.419 17.81a12.967 12.967 0 0 0 3.53 4.048q-1.73-1.995-3.53-4.048" data-name="パス 18176"/>
    <path fill="#66c6e2" d="M27.117 15.153a.75.75 0 0 0 1.42-.383q-.413-.362-.848-.692a.748.748 0 0 0-.572 1.076" data-name="パス 18177"/>
    <path fill="#66c6e2" d="M29.335 17.934a.75.75 0 1 0-1-.339.75.75 0 0 0 1 .339" data-name="パス 18178"/>
    <path fill="#66c6e2" d="M30.543 20.375a.75.75 0 1 0-1-.339.75.75 0 0 0 1 .339" data-name="パス 18179"/>
    <path fill="#66c6e2" d="M32.094 21.811a.75.75 0 1 0-.339 1 .75.75 0 0 0 .339-1" data-name="パス 18180"/>
    <path fill="#66c6e2" d="M33.302 24.253a.75.75 0 1 0-.339 1 .75.75 0 0 0 .339-1" data-name="パス 18181"/>
    <path fill="#66c6e2" d="M33.169 27.36a.748.748 0 0 0 .5.4q.065-.735.065-1.472a.749.749 0 0 0-.566 1.075" data-name="パス 18182"/>
    <path fill="#66c6e2" d="M22.19 11.513a.75.75 0 0 0 1.192.208q-.621-.232-1.26-.419a.758.758 0 0 0 .068.211" data-name="パス 18183"/>
    <path fill="#66c6e2" d="M24.406 14.293a.75.75 0 1 0-1-.339.75.75 0 0 0 1 .339" data-name="パス 18184"/>
    <path fill="#66c6e2" d="M25.616 16.735a.75.75 0 1 0-1-.339.75.75 0 0 0 1 .339" data-name="パス 18185"/>
    <path fill="#66c6e2" d="M26.826 19.176a.75.75 0 1 0-1-.339.75.75 0 0 0 1 .339" data-name="パス 18186"/>
    <path fill="#66c6e2" d="M28.376 20.613a.75.75 0 1 0-.339 1 .75.75 0 0 0 .339-1" data-name="パス 18187"/>
    <path fill="#66c6e2" d="M29.586 23.054a.75.75 0 1 0-.339 1 .75.75 0 0 0 .339-1" data-name="パス 18188"/>
    <path fill="#66c6e2" d="M30.796 25.495a.75.75 0 1 0-.339 1 .75.75 0 0 0 .339-1" data-name="パス 18189"/>
    <path fill="#66c6e2" d="M32.007 27.936a.75.75 0 1 0-.339 1 .75.75 0 0 0 .339-1" data-name="パス 18190"/>
    <path fill="#66c6e2" d="M33.217 30.378a.75.75 0 1 0-.339 1 .774.774 0 0 0 .1-.059q.138-.457.252-.921c0-.008-.007-.017-.011-.025" data-name="パス 18191"/>
    <path fill="#66c6e2" d="M19.316 10.715a24.187 24.187 0 0 0-.5-.06.748.748 0 0 0 .5.06" data-name="パス 18192"/>
    <path fill="#66c6e2" d="M20.69 13.094a.75.75 0 1 0-1-.339.75.75 0 0 0 1 .339" data-name="パス 18193"/>
    <path fill="#66c6e2" d="M21.9 15.535a.75.75 0 1 0-1-.339.75.75 0 0 0 1 .339" data-name="パス 18194"/>
    <path fill="#66c6e2" d="M22.106 17.638a.75.75 0 1 0 .339-1 .75.75 0 0 0-.339 1" data-name="パス 18195"/>
    <path fill="#66c6e2" d="M23.316 20.078a.75.75 0 1 0 .339-1 .75.75 0 0 0-.339 1" data-name="パス 18196"/>
    <path fill="#66c6e2" d="M25.87 21.855a.75.75 0 1 0-.339 1 .75.75 0 0 0 .339-1" data-name="パス 18197"/>
    <path fill="#66c6e2" d="M27.08 24.296a.75.75 0 1 0-.339 1 .75.75 0 0 0 .339-1" data-name="パス 18198"/>
    <path fill="#66c6e2" d="M28.288 26.737a.75.75 0 1 0-.339 1 .75.75 0 0 0 .339-1" data-name="パス 18199"/>
    <path fill="#66c6e2" d="M29.501 29.182a.75.75 0 1 0-.339 1 .75.75 0 0 0 .339-1" data-name="パス 18200"/>
    <path fill="#66c6e2" d="M30.711 31.62a.75.75 0 1 0-.339 1 .75.75 0 0 0 .339-1" data-name="パス 18201"/>
    <path fill="#66c6e2" d="M30.916 33.722a.749.749 0 0 0 .409 1.417q.31-.539.583-1.1a.749.749 0 0 0-.993-.317" data-name="パス 18202"/>
    <path fill="#66c6e2" d="M15.967 11.556a.75.75 0 1 0 .988-1.012h-.65a.75.75 0 0 0-.339 1" data-name="パス 18203"/>
    <path fill="#66c6e2" d="M18.184 14.336a.75.75 0 1 0-1-.339.75.75 0 0 0 1 .339" data-name="パス 18204"/>
    <path fill="#66c6e2" d="M18.39 16.44a.75.75 0 1 0 .339-1 .75.75 0 0 0-.339 1" data-name="パス 18205"/>
    <path fill="#66c6e2" d="M19.6 18.88a.75.75 0 1 0 .339-1 .75.75 0 0 0-.339 1" data-name="パス 18206"/>
    <path fill="#66c6e2" d="M20.81 21.321a.75.75 0 1 0 .339-1 .75.75 0 0 0-.339 1" data-name="パス 18207"/>
    <path fill="#66c6e2" d="M23.364 23.092a.75.75 0 1 0-.339 1 .75.75 0 0 0 .339-1" data-name="パス 18208"/>
    <path fill="#66c6e2" d="M24.575 25.538a.75.75 0 1 0-.339 1 .75.75 0 0 0 .339-1" data-name="パス 18209"/>
    <path fill="#66c6e2" d="M25.785 27.98a.75.75 0 1 0-.339 1 .75.75 0 0 0 .339-1" data-name="パス 18210"/>
    <path fill="#66c6e2" d="M26.995 30.421a.75.75 0 1 0-.339 1 .75.75 0 0 0 .339-1" data-name="パス 18211"/>
    <path fill="#66c6e2" d="M28.206 32.862a.75.75 0 1 0-.339 1 .75.75 0 0 0 .339-1" data-name="パス 18212"/>
    <path fill="#66c6e2" d="M28.411 34.965a.75.75 0 1 0 1 .339.75.75 0 0 0-1-.339" data-name="パス 18213"/>
    <path fill="#66c6e2" d="M29.621 37.405a.75.75 0 0 0-.416.667q.322-.358.624-.734a.748.748 0 0 0-.207.067" data-name="パス 18214"/>
    <path fill="#66c6e2" d="M14.468 13.137a.75.75 0 1 0-1-.339.75.75 0 0 0 1 .339" data-name="パス 18215"/>
    <path fill="#66c6e2" d="M15.679 15.579a.75.75 0 1 0-1-.339.75.75 0 0 0 1 .339" data-name="パス 18216"/>
    <path fill="#66c6e2" d="M15.884 17.681a.75.75 0 1 0 .339-1.005.75.75 0 0 0-.339 1.005" data-name="パス 18217"/>
    <path fill="#66c6e2" d="M17.094 20.122a.75.75 0 1 0 .339-1 .75.75 0 0 0-.339 1" data-name="パス 18218"/>
    <path fill="#66c6e2" d="M19.648 21.898a.75.75 0 1 0-.339 1 .75.75 0 0 0 .339-1" data-name="パス 18219"/>
    <path fill="#66c6e2" d="M20.859 24.339a.75.75 0 1 0-.339 1 .75.75 0 0 0 .339-1" data-name="パス 18220"/>
    <path fill="#66c6e2" d="M22.069 26.781a.75.75 0 1 0-.339 1 .75.75 0 0 0 .339-1" data-name="パス 18221"/>
    <path fill="#66c6e2" d="M23.28 29.222a.75.75 0 1 0-.339 1 .75.75 0 0 0 .339-1" data-name="パス 18222"/>
    <path fill="#66c6e2" d="M24.49 31.663a.75.75 0 1 0-.339 1 .75.75 0 0 0 .339-1" data-name="パス 18223"/>
    <path fill="#66c6e2" d="M25.7 34.105a.75.75 0 1 0-.339 1 .75.75 0 0 0 .339-1" data-name="パス 18224"/>
    <path fill="#66c6e2" d="M26.91 36.546a.75.75 0 1 0-.339 1 .75.75 0 0 0 .339-1" data-name="パス 18225"/>
    <path fill="#66c6e2" d="M28.12 38.987a.75.75 0 1 0-.982 1.016q.536-.416 1.033-.88a.753.753 0 0 0-.051-.136" data-name="パス 18226"/>
    <path fill="#66c6e2" d="M10.752 11.938a.749.749 0 0 0 .408-.561q-.635.2-1.251.438a.749.749 0 0 0 .843.123" data-name="パス 18227"/>
    <path fill="#66c6e2" d="M11.962 14.38a.75.75 0 1 0-1-.339.75.75 0 0 0 1 .339" data-name="パス 18228"/>
    <path fill="#66c6e2" d="M12.168 16.482a.75.75 0 1 0 .339-1 .75.75 0 0 0-.339 1" data-name="パス 18229"/>
    <path fill="#66c6e2" d="M13.378 18.923a.75.75 0 1 0 .339-1 .75.75 0 0 0-.339 1" data-name="パス 18230"/>
    <path fill="#66c6e2" d="M15.932 20.699a.75.75 0 1 0-.339 1 .75.75 0 0 0 .339-1" data-name="パス 18231"/>
    <path fill="#66c6e2" d="M17.143 23.14a.75.75 0 1 0-.339 1 .75.75 0 0 0 .339-1" data-name="パス 18232"/>
    <path fill="#66c6e2" d="M18.353 25.581a.75.75 0 1 0-.339 1 .75.75 0 0 0 .339-1" data-name="パス 18233"/>
    <path fill="#66c6e2" d="M19.563 28.023a.75.75 0 1 0-.339 1 .75.75 0 0 0 .339-1" data-name="パス 18234"/>
    <path fill="#66c6e2" d="M20.774 30.464a.75.75 0 1 0-.339 1 .75.75 0 0 0 .339-1" data-name="パス 18235"/>
    <path fill="#66c6e2" d="M21.984 32.905a.75.75 0 1 0-.339 1 .75.75 0 0 0 .339-1" data-name="パス 18236"/>
    <path fill="#66c6e2" d="M23.195 35.347a.75.75 0 1 0-.339 1 .75.75 0 0 0 .339-1" data-name="パス 18237"/>
    <path fill="#66c6e2" d="M24.065 38.793a.75.75 0 1 0-1-.339.75.75 0 0 0 1 .339" data-name="パス 18238"/>
    <path fill="#66c6e2" d="M25.276 41.234a.75.75 0 1 0-1-.339.75.75 0 0 0 1 .339" data-name="パス 18239"/>
    <path fill="#66c6e2" d="M8.247 13.18a.75.75 0 0 0 .4-.813q-.643.313-1.257.679a.749.749 0 0 0 .854.133" data-name="パス 18240"/>
    <path fill="#66c6e2" d="M9.457 15.622a.75.75 0 1 0-1-.339.75.75 0 0 0 1 .339" data-name="パス 18241"/>
    <path fill="#66c6e2" d="M11.006 17.058a.75.75 0 1 0-.339 1 .75.75 0 0 0 .339-1" data-name="パス 18242"/>
    <path fill="#66c6e2" d="M12.216 19.5a.75.75 0 1 0-.339 1 .75.75 0 0 0 .339-1" data-name="パス 18243"/>
    <path fill="#66c6e2" d="M13.427 21.941a.75.75 0 1 0-.339 1 .75.75 0 0 0 .339-1" data-name="パス 18244"/>
    <path fill="#66c6e2" d="M14.632 24.382a.75.75 0 1 0-.339 1 .75.75 0 0 0 .339-1" data-name="パス 18245"/>
    <path fill="#66c6e2" d="M15.847 26.824a.75.75 0 1 0-.339 1 .75.75 0 0 0 .339-1" data-name="パス 18246"/>
    <path fill="#66c6e2" d="M17.057 29.265a.75.75 0 1 0-.339 1 .75.75 0 0 0 .339-1" data-name="パス 18247"/>
    <path fill="#66c6e2" d="M18.268 31.706a.75.75 0 1 0-.339 1 .75.75 0 0 0 .339-1" data-name="パス 18248"/>
    <path fill="#66c6e2" d="M19.478 34.148a.75.75 0 1 0-.339 1 .75.75 0 0 0 .339-1" data-name="パス 18249"/>
    <path fill="#66c6e2" d="M20.688 36.587a.75.75 0 1 0-.339 1 .75.75 0 0 0 .339-1" data-name="パス 18250"/>
    <path fill="#66c6e2" d="M21.56 40.038a.75.75 0 1 0-1-.339.75.75 0 0 0 1 .339" data-name="パス 18251"/>
    <path fill="#66c6e2" d="M23.109 41.472a.75.75 0 1 0-.779 1.075q.33-.109.655-.231a.75.75 0 0 0 .124-.844" data-name="パス 18252"/>
    <path fill="#66c6e2" d="M6.146 13.874q-.407.3-.8.623a.747.747 0 0 0 .8-.623" data-name="パス 18253"/>
    <path fill="#66c6e2" d="M7.29 15.859a.75.75 0 1 0-.339 1 .75.75 0 0 0 .339-1" data-name="パス 18254"/>
    <path fill="#66c6e2" d="M8.5 18.301a.75.75 0 1 0-.339 1 .75.75 0 0 0 .339-1" data-name="パス 18255"/>
    <path fill="#66c6e2" d="M9.711 20.741a.75.75 0 1 0-.339 1 .75.75 0 0 0 .339-1" data-name="パス 18256"/>
    <path fill="#66c6e2" d="M10.921 23.183a.75.75 0 1 0-.339 1 .75.75 0 0 0 .339-1" data-name="パス 18257"/>
    <path fill="#66c6e2" d="M12.131 25.624a.75.75 0 1 0-.339 1 .75.75 0 0 0 .339-1" data-name="パス 18258"/>
    <path fill="#66c6e2" d="M13.344 28.066a.75.75 0 1 0-.339 1 .75.75 0 0 0 .339-1" data-name="パス 18259"/>
    <path fill="#66c6e2" d="M14.552 30.507a.75.75 0 1 0-.339 1 .75.75 0 0 0 .339-1" data-name="パス 18260"/>
    <path fill="#66c6e2" d="M15.762 32.949a.75.75 0 1 0-.339 1 .75.75 0 0 0 .339-1" data-name="パス 18261"/>
    <path fill="#66c6e2" d="M16.972 35.39a.75.75 0 1 0-.339 1 .75.75 0 0 0 .339-1" data-name="パス 18262"/>
    <path fill="#66c6e2" d="M18.183 37.831a.75.75 0 1 0-.339 1 .75.75 0 0 0 .339-1" data-name="パス 18263"/>
    <path fill="#66c6e2" d="M19.054 41.277a.75.75 0 1 0-1-.339.75.75 0 0 0 1 .339" data-name="パス 18264"/>
    <path fill="#66c6e2" d="M20.603 42.714a.749.749 0 0 0-1.389.551q.738-.1 1.465-.263a.748.748 0 0 0-.077-.288" data-name="パス 18265"/>
    <path fill="#66c6e2" d="M4.781 17.101a.75.75 0 1 0-.339 1 .75.75 0 0 0 .339-1" data-name="パス 18266"/>
    <path fill="#66c6e2" d="M5.994 19.543a.75.75 0 1 0-.339 1 .75.75 0 0 0 .339-1" data-name="パス 18267"/>
    <path fill="#66c6e2" d="M7.205 21.984a.75.75 0 1 0-.339 1 .75.75 0 0 0 .339-1" data-name="パス 18268"/>
    <path fill="#66c6e2" d="M8.415 24.426a.75.75 0 1 0-.339 1 .75.75 0 0 0 .339-1" data-name="パス 18269"/>
    <path fill="#66c6e2" d="M9.625 26.867a.75.75 0 1 0-.339 1 .75.75 0 0 0 .339-1" data-name="パス 18270"/>
    <path fill="#66c6e2" d="M10.836 29.311a.75.75 0 1 0-.339 1 .75.75 0 0 0 .339-1" data-name="パス 18271"/>
    <path fill="#66c6e2" d="M12.046 31.749a.75.75 0 1 0-.339 1 .75.75 0 0 0 .339-1" data-name="パス 18272"/>
    <path fill="#66c6e2" d="M13.256 34.191a.75.75 0 1 0-.339 1 .75.75 0 0 0 .339-1" data-name="パス 18273"/>
    <path fill="#66c6e2" d="M14.467 36.632a.75.75 0 1 0-.339 1 .75.75 0 0 0 .339-1" data-name="パス 18274"/>
    <path fill="#66c6e2" d="M15.338 40.078a.75.75 0 1 0-1-.339.75.75 0 0 0 1 .339" data-name="パス 18275"/>
    <path fill="#66c6e2" d="M16.548 42.52a.75.75 0 1 0-1-.339.75.75 0 0 0 1 .339" data-name="パス 18276"/>
    <path fill="#66c6e2" d="M1.94 19.348a.747.747 0 0 0 .239-1.156q-.358.591-.667 1.228a.745.745 0 0 0 .429-.072" data-name="パス 18277"/>
    <path fill="#66c6e2" d="M3.493 20.785a.75.75 0 1 0-.339 1 .75.75 0 0 0 .339-1" data-name="パス 18278"/>
    <path fill="#66c6e2" d="M4.699 23.221a.75.75 0 1 0-.339 1 .75.75 0 0 0 .339-1" data-name="パス 18279"/>
    <path fill="#66c6e2" d="M5.909 25.668a.75.75 0 1 0-.339 1 .75.75 0 0 0 .339-1" data-name="パス 18280"/>
    <path fill="#66c6e2" d="M7.119 28.109a.75.75 0 1 0-.339 1 .75.75 0 0 0 .339-1" data-name="パス 18281"/>
    <path fill="#66c6e2" d="M8.33 30.55a.75.75 0 1 0-.339 1 .75.75 0 0 0 .339-1" data-name="パス 18282"/>
    <path fill="#66c6e2" d="M9.538 32.992a.75.75 0 1 0-.339 1 .75.75 0 0 0 .339-1" data-name="パス 18283"/>
    <path fill="#66c6e2" d="M10.751 35.433a.75.75 0 1 0-.339 1 .75.75 0 0 0 .339-1" data-name="パス 18284"/>
    <path fill="#66c6e2" d="M11.622 38.879a.75.75 0 1 0-1-.339.75.75 0 0 0 1 .339" data-name="パス 18285"/>
    <path fill="#66c6e2" d="M12.832 41.32a.75.75 0 1 0-1-.339.75.75 0 0 0 1 .339" data-name="パス 18286"/>
    <path fill="#66c6e2" d="M14.381 42.757a.749.749 0 0 0-1.417.259q.73.16 1.472.258a.745.745 0 0 0-.055-.516" data-name="パス 18287"/>
    <path fill="#66c6e2" d="M.983 22.027a.746.746 0 0 0-.354-.347q-.215.706-.362 1.428a.749.749 0 0 0 .718-1.081" data-name="パス 18288"/>
    <path fill="#66c6e2" d="M1.189 24.13a.75.75 0 1 0 1 .339.75.75 0 0 0-1-.339" data-name="パス 18289"/>
    <path fill="#66c6e2" d="M3.404 26.91a.75.75 0 1 0-.339 1 .75.75 0 0 0 .339-1" data-name="パス 18290"/>
    <path fill="#66c6e2" d="M4.614 29.351a.75.75 0 1 0-.339 1 .75.75 0 0 0 .339-1" data-name="パス 18291"/>
    <path fill="#66c6e2" d="M5.824 31.793a.75.75 0 1 0-.339 1 .75.75 0 0 0 .339-1" data-name="パス 18292"/>
    <path fill="#66c6e2" d="M6.696 35.239a.75.75 0 1 0-1-.339.75.75 0 0 0 1 .339" data-name="パス 18293"/>
    <path fill="#66c6e2" d="M7.906 37.68a.75.75 0 1 0-1-.339.75.75 0 0 0 1 .339" data-name="パス 18294"/>
    <path fill="#66c6e2" d="M9.116 40.121a.75.75 0 1 0-1-.339.75.75 0 0 0 1 .339" data-name="パス 18295"/>
    <path fill="#66c6e2" d="M10.665 41.558a.749.749 0 0 0-1.406.182q.662.319 1.35.578a.75.75 0 0 0 .056-.761" data-name="パス 18296"/>
    <path fill="#66c6e2" d="M.9 28.152a.749.749 0 0 0-.9-.381q.06.734.183 1.462A.749.749 0 0 0 .9 28.152" data-name="パス 18297"/>
    <path fill="#66c6e2" d="M1.103 30.25a.75.75 0 1 0 1 .339.75.75 0 0 0-1-.339" data-name="パス 18298"/>
    <path fill="#66c6e2" d="M2.975 34.04a.75.75 0 1 0-1-.339.75.75 0 0 0 1 .339" data-name="パス 18299"/>
    <path fill="#66c6e2" d="M4.19 36.481a.75.75 0 1 0-1-.339.75.75 0 0 0 1 .339" data-name="パス 18300"/>
    <path fill="#66c6e2" d="M5.739 37.918a.749.749 0 0 0-1.387.111q.437.491.913.946a.748.748 0 0 0 .475-1.056" data-name="パス 18301"/>
    <path fill="#66c6e2" d="M6.949 40.358a.749.749 0 0 0-.561-.408q.269.212.547.412l.022.016c0-.006-.005-.013-.008-.019" data-name="パス 18302"/>
  </g>
</svg>
