<?xml version="1.0" encoding="UTF-8"?>
<svg id="_レイヤー_1" data-name="レイヤー 1" xmlns="http://www.w3.org/2000/svg" viewBox="0 0 300 36.01">
  <defs>
    <style>
      .cls-1 {
        fill: none;
      }

      .cls-1, .cls-2 {
        stroke-width: 0px;
      }

      .cls-2 {
        fill: #fff;
      }
    </style>
  </defs>
  <path class="cls-1" d="m300,26.03V0H0v26.02c9.7.18,19.41-.16,29.08-1.06,6.39-.62,12.75-1.61,19.03-2.95,11.37-2.45,20.61-5.76,29.55-8.96,8.94-3.2,18.19-6.51,29.55-8.96,6.28-1.34,12.63-2.32,19.03-2.95C134.27.36,142.33,0,150.39.02c8.07-.03,16.13.34,24.15,1.12,6.39.62,12.75,1.61,19.03,2.95,11.36,2.45,20.61,5.76,29.54,8.96,8.93,3.2,18.18,6.51,29.54,8.96,6.28,1.34,12.63,2.32,19.03,2.95,9.42.87,18.87,1.22,28.32,1.07Z"/>
  <path class="cls-2" d="m29.08,24.97c-9.67.9-19.38,1.24-29.08,1.06v9.98h300v-9.98c-9.45.15-18.9-.2-28.32-1.07-6.4-.62-12.75-1.61-19.03-2.95-11.36-2.45-20.61-5.76-29.54-8.96-8.93-3.2-18.18-6.51-29.54-8.96-6.28-1.34-12.64-2.32-19.03-2.95C166.52.37,158.46,0,150.39.02c-8.06-.03-16.12.33-24.15,1.12-6.4.62-12.75,1.61-19.03,2.95-11.36,2.45-20.61,5.76-29.55,8.96-8.94,3.2-18.18,6.51-29.55,8.96-6.28,1.34-12.64,2.32-19.03,2.95h0Z"/>
</svg>