<svg xmlns="http://www.w3.org/2000/svg" data-name="レイヤー 2" viewBox="0 0 300 36.01">
  <g data-name="b">
    <g data-name="c">
      <path d="M271.68 11.05c-6.4.63-12.75 1.61-19.03 2.95-11.36 2.45-20.61 5.76-29.54 8.96-8.93 3.2-18.18 6.51-29.54 8.96-6.28 1.34-12.64 2.33-19.03 2.95-8.02.78-16.08 1.15-24.15 1.12-8.06.03-16.12-.34-24.15-1.12-6.4-.63-12.75-1.61-19.03-2.95-11.36-2.45-20.61-5.76-29.55-8.96-8.94-3.2-18.18-6.51-29.55-8.96-6.28-1.34-12.64-2.33-19.03-2.95C19.41 10.15 9.7 9.81 0 9.99v26.02h300V9.98c-9.45-.15-18.9.2-28.32 1.07Z" style="stroke-width:0;fill:none"/>
      <path d="M29.08 11.05c6.39.63 12.75 1.61 19.03 2.95 11.37 2.45 20.61 5.76 29.55 8.96 8.94 3.2 18.19 6.51 29.55 8.96 6.28 1.34 12.63 2.33 19.03 2.95 8.03.79 16.09 1.15 24.15 1.12 8.07.03 16.13-.35 24.15-1.12 6.39-.63 12.75-1.61 19.03-2.95 11.36-2.45 20.61-5.76 29.54-8.96 8.93-3.2 18.18-6.51 29.54-8.96 6.28-1.34 12.63-2.33 19.03-2.95 9.42-.87 18.87-1.22 28.32-1.07V0H0v9.98c9.7-.18 19.41.16 29.08 1.06Z" style="fill:#EAFDFF;stroke-width:0"/>
    </g>
  </g>
</svg>
